<?xml version="1.0" encoding="utf-8"?>
<!-- Generator: Adobe Illustrator 25.3.0, SVG Export Plug-In . SVG Version: 6.00 Build 0)  -->
<svg version="1.1" id="图层_1" xmlns="http://www.w3.org/2000/svg" xmlns:xlink="http://www.w3.org/1999/xlink" x="0px" y="0px"
	 viewBox="0 0 1186.3 841.9" style="enable-background:new 0 0 1186.3 841.9;" xml:space="preserve">
<style type="text/css">
	.st0{fill:#1E6A36;}
	.st1{fill:#1D653F;}
	.st2{fill:#146836;}
	.st3{fill:#206534;}
	.st4{display:none;}
	.st5{display:inline;fill:#21783A;}
	.st6{display:inline;fill:#467435;}
	.st7{display:inline;fill:#367C60;}
	.st8{display:inline;fill:#417F51;}
	.st9{display:inline;}
	.st10{fill:#68B464;}
	.st11{fill:#5E2915;}
	.st12{fill:#5EB989;}
	.st13{fill:#3CAE36;}
	.st14{fill:#2DAD46;}
	.st15{fill:#6EBE75;}
	.st16{fill:#36AE37;}
	.st17{display:none;fill:#2BA139;}
	.st18{fill:#383402;}
</style>
<rect y="634.9" class="st0" width="1186.3" height="185"/>
<path class="st1" d="M862.3,301c-90.7,198.7-125.4,316.7-86.9,393.7s144.1,88.2,188.8,0C1008.8,606.5,862.3,301,862.3,301z"/>
<g>
	<path class="st0" d="M57.5,221.6C-52.1,461.9-94.2,604.5-47.6,697.7s174.2,106.6,228.3,0S57.5,221.6,57.5,221.6z"/>
	<path class="st2" d="M183.6,205.6C92.9,404.3,58.1,522.3,96.6,599.2s144.1,88.2,188.8,0S183.6,205.6,183.6,205.6z"/>
	<path class="st2" d="M282.9,219.1C192.3,417.8,157.5,535.8,196,612.8s144.1,88.2,188.8,0S282.9,219.1,282.9,219.1z"/>
	<path class="st0" d="M376.1,248.6c-90.7,198.7-125.4,316.7-86.9,393.7s144.1,88.2,188.8,0S376.1,248.6,376.1,248.6z"/>
	<path class="st3" d="M531.7,233.6c-90.7,198.7-125.4,316.7-86.9,393.7s144.1,88.2,188.8,0C678.3,539.1,531.7,233.6,531.7,233.6z"/>
	<path class="st0" d="M713,223.2c-90.7,198.7-125.4,316.7-86.9,393.7c38.5,77,144.1,88.2,188.8,0C859.6,528.7,713,223.2,713,223.2z"
		/>
	<path class="st0" d="M1013.1,233.6c-90.7,198.7-125.4,316.7-86.9,393.7s144.1,88.2,188.8,0C1159.6,539.1,1013.1,233.6,1013.1,233.6
		z"/>
	<path class="st0" d="M1133.3,264c-92.7,203.3-128.3,323.9-88.9,402.7c39.4,78.8,147.4,90.2,193.1,0S1133.3,264,1133.3,264z"/>
</g>
<g class="st4">
	<path class="st5" d="M100.9,340.6C19,520.1-12.4,626.7,22.4,696.3s130.1,79.7,170.5,0S100.9,340.6,100.9,340.6z"/>
	<path class="st6" d="M448.7,282.6c-81.9,179.5-113.3,286.1-78.5,355.7s130.1,79.7,170.5,0S448.7,282.6,448.7,282.6z"/>
	<path class="st7" d="M235.6,381.2C153.7,560.7,122.3,667.3,157,736.9s130.1,79.7,170.5,0S235.6,381.2,235.6,381.2z"/>
	<path class="st5" d="M628.2,329.3C546.3,508.8,514.9,615.4,549.7,685s130.1,79.7,170.5,0S628.2,329.3,628.2,329.3z"/>
	<path class="st5" d="M935.5,362.6C853.6,542.1,822.2,648.7,857,718.3s130.2,79.7,170.5,0S935.5,362.6,935.5,362.6z"/>
	<path class="st8" d="M792,340.6c-81.9,179.5-113.3,286.1-78.5,355.7s130.1,79.7,170.5,0S792,340.6,792,340.6z"/>
	<path class="st5" d="M1119.8,374c-81.9,179.5-113.3,286.1-78.5,355.7c34.8,69.6,130.2,79.7,170.5,0S1119.8,374,1119.8,374z"/>
</g>
<g class="st4">
	<g class="st9">
		<path class="st10" d="M58.2,368.1c-73.3,160.6-101.4,256-70.3,318.3s116.5,71.3,152.6,0S58.2,368.1,58.2,368.1z"/>
		<path class="st11" d="M61.4,509.3c0,0-11.4,262.8-9.8,296.8h21.6C73.2,806,60.4,558.7,61.4,509.3z"/>
	</g>
	<g class="st9">
		<path class="st12" d="M325.7,349.5c-73.3,160.6-101.4,256-70.3,318.3s116.5,71.3,152.6,0S325.7,349.5,325.7,349.5z"/>
		<path class="st11" d="M328.9,490.7c0,0-11.4,262.8-9.8,296.8h21.6C340.7,787.4,327.9,540.1,328.9,490.7z"/>
	</g>
	<g class="st9">
		<path class="st13" d="M209.7,424c-54.6,119.6-75.5,190.6-52.3,237s86.7,53.1,113.6,0C297.9,607.9,209.7,424,209.7,424z"/>
		<path class="st11" d="M212.1,529.1c0,0-8.5,195.6-7.3,221h16.1C220.9,750.1,211.3,566,212.1,529.1z"/>
	</g>
	<g class="st9">
		<path class="st14" d="M897.5,309.8c-73.3,160.6-101.4,256-70.3,318.3s116.5,71.3,152.6,0S897.5,309.8,897.5,309.8z"/>
		<path class="st11" d="M900.7,451c0,0-11.4,262.8-9.8,296.8h21.6C912.5,747.8,899.7,500.5,900.7,451z"/>
	</g>
	<g class="st9">
		<path class="st10" d="M514.2,309.8c-73.3,160.6-101.4,256-70.3,318.3s116.5,71.3,152.6,0C632.7,556.8,514.2,309.8,514.2,309.8z"/>
		<path class="st11" d="M517.4,451c0,0-11.4,262.8-9.8,296.8h21.6C529.2,747.8,516.4,500.5,517.4,451z"/>
	</g>
	<g class="st9">
		<path class="st15" d="M707.1,292.2c-73.3,160.6-101.4,256-70.3,318.3s116.5,71.3,152.6,0C825.6,539.2,707.1,292.2,707.1,292.2z"/>
		<path class="st11" d="M710.3,433.4c0,0-11.4,262.8-9.8,296.8h21.6C722.1,730.2,709.3,482.9,710.3,433.4z"/>
	</g>
	<g class="st9">
		<path class="st16" d="M1013.8,327.5c-73.3,160.6-101.4,256-70.3,318.3s116.5,71.3,152.6,0S1013.8,327.5,1013.8,327.5z"/>
		<path class="st11" d="M1017,468.7c0,0-11.4,262.8-9.8,296.8h21.6C1028.8,765.4,1016,518.1,1017,468.7z"/>
	</g>
</g>
<path class="st17" d="M0,746.8c131.9-46.4,772.2-114.5,1186.3-36.2v131.4H0V746.8z"/>
<polygon class="st18" points="51,584.9 45,819.9 71,819.9 62.3,541.9 "/>
<polygon class="st18" points="156,584.9 150,819.9 176,819.9 167.3,541.9 "/>
<polygon class="st18" points="253.7,565.3 247.7,800.3 273.7,800.3 264.9,522.3 "/>
<polygon class="st18" points="326.7,571.8 320.7,806.8 346.7,806.8 337.9,528.8 "/>
<polygon class="st18" points="391.7,593.3 385.7,828.3 411.7,828.3 402.9,550.3 "/>
<polygon class="st18" points="541.7,550.3 535.7,785.3 561.7,785.3 552.9,507.3 "/>
<polygon class="st18" points="590.6,584.9 584.6,819.9 610.6,819.9 601.9,541.9 "/>
<polygon class="st18" points="670.7,593.3 664.7,828.3 690.7,828.3 682,550.3 "/>
<polygon class="st18" points="829.4,582.9 823.4,817.9 849.4,817.9 840.6,539.9 "/>
<polygon class="st18" points="1001.4,584.9 995.4,819.9 1021.4,819.9 1012.6,541.9 "/>
</svg>
