<?xml version="1.0" encoding="utf-8"?>
<!-- Generator: Adobe Illustrator 25.2.3, SVG Export Plug-In . SVG Version: 6.00 Build 0)  -->
<svg version="1.1" id="图层_1" xmlns="http://www.w3.org/2000/svg" xmlns:xlink="http://www.w3.org/1999/xlink" x="0px" y="0px"
	 viewBox="0 0 1186.33 841.89" style="enable-background:new 0 0 1186.33 841.89;" xml:space="preserve">
<style type="text/css">
	.st0{display:none;fill:#1D653F;}
	.st1{display:none;}
	.st2{display:inline;fill:#1E6A36;}
	.st3{display:inline;fill:#146836;}
	.st4{display:inline;fill:#206534;}
	.st5{fill:#21783A;}
	.st6{fill:#467435;}
	.st7{fill:#367C60;}
	.st8{fill:#417F51;}
	.st9{display:inline;}
	.st10{fill:#68B464;}
	.st11{fill:#5E2915;}
	.st12{fill:#5EB989;}
	.st13{fill:#3CAE36;}
	.st14{fill:#2DAD46;}
	.st15{fill:#6EBE75;}
	.st16{fill:#36AE37;}
	.st17{display:none;fill:#2BA139;}
</style>
<path class="st0" d="M862.26,300.97c-90.66,198.7-125.43,316.67-86.93,393.67s144.06,88.17,188.76,0
	C1008.8,606.47,862.26,300.97,862.26,300.97z"/>
<g class="st1">
	<path class="st2" d="M57.51,221.59C-52.12,461.88-94.17,604.55-47.62,697.66s174.21,106.63,228.27,0S57.51,221.59,57.51,221.59z"/>
	<path class="st3" d="M183.55,205.59C92.89,404.28,58.12,522.26,96.62,599.25s144.06,88.17,188.76,0S183.55,205.59,183.55,205.59z"
		/>
	<path class="st3" d="M282.93,219.14C192.27,417.83,157.5,535.81,196,612.8s144.06,88.17,188.76,0S282.93,219.14,282.93,219.14z"/>
	<path class="st2" d="M376.09,248.59c-90.66,198.7-125.43,316.67-86.93,393.67s144.06,88.17,188.76,0S376.09,248.59,376.09,248.59z"
		/>
	<path class="st4" d="M531.73,233.58c-90.66,198.7-125.43,316.67-86.93,393.67s144.06,88.17,188.76,0
		C678.27,539.08,531.73,233.58,531.73,233.58z"/>
	<path class="st2" d="M713.04,223.19c-90.66,198.7-125.43,316.67-86.93,393.67c38.5,76.99,144.06,88.17,188.76,0
		C859.58,528.69,713.04,223.19,713.04,223.19z"/>
	<path class="st2" d="M1013.08,233.58c-90.66,198.7-125.43,316.67-86.93,393.67s144.06,88.17,188.76,0
		C1159.62,539.08,1013.08,233.58,1013.08,233.58z"/>
	<path class="st2" d="M1133.32,264.05c-92.74,203.26-128.3,323.94-88.92,402.7c39.38,78.76,147.36,90.19,193.09,0
		S1133.32,264.05,1133.32,264.05z"/>
</g>
<g>
	<path class="st5" d="M100.89,340.61C18.99,520.13-12.43,626.72,22.35,696.28s130.15,79.66,170.54,0S100.89,340.61,100.89,340.61z"
		/>
	<path class="st6" d="M448.67,282.62c-81.91,179.52-113.32,286.11-78.54,355.67s130.15,79.66,170.54,0S448.67,282.62,448.67,282.62z
		"/>
	<path class="st7" d="M235.59,381.2c-81.91,179.52-113.32,286.11-78.54,355.67s130.15,79.66,170.54,0S235.59,381.2,235.59,381.2z"/>
	<path class="st5" d="M628.22,329.31c-81.91,179.52-113.32,286.11-78.54,355.67s130.15,79.66,170.54,0S628.22,329.31,628.22,329.31z
		"/>
	<path class="st5" d="M935.54,362.6C853.64,542.12,822.22,648.71,857,718.27s130.15,79.66,170.54,0S935.54,362.6,935.54,362.6z"/>
	<path class="st8" d="M792.03,340.61c-81.91,179.52-113.32,286.11-78.54,355.67s130.15,79.66,170.54,0S792.03,340.61,792.03,340.61z
		"/>
	<path class="st5" d="M1119.84,374.03c-81.91,179.52-113.32,286.11-78.54,355.67s130.15,79.66,170.54,0
		S1119.84,374.03,1119.84,374.03z"/>
</g>
<g class="st1">
	<g class="st9">
		<path class="st10" d="M58.17,368.07C-15.12,528.71-43.24,624.1-12.11,686.35s116.47,71.29,152.61,0S58.17,368.07,58.17,368.07z"/>
		<path class="st11" d="M61.36,509.27c0,0-11.37,262.76-9.83,296.76h21.64C73.17,806.03,60.36,558.73,61.36,509.27z"/>
	</g>
	<g class="st9">
		<path class="st12" d="M325.74,349.47c-73.29,160.65-101.41,256.03-70.28,318.28s116.47,71.29,152.61,0
			S325.74,349.47,325.74,349.47z"/>
		<path class="st11" d="M328.92,490.67c0,0-11.37,262.76-9.83,296.76h21.64C340.74,787.43,327.93,540.13,328.92,490.67z"/>
	</g>
	<g class="st9">
		<path class="st13" d="M209.71,424c-54.57,119.61-75.51,190.63-52.33,236.98c23.18,46.35,86.72,53.08,113.63,0
			C297.92,607.91,209.71,424,209.71,424z"/>
		<path class="st11" d="M212.08,529.14c0,0-8.47,195.64-7.32,220.96h16.11C220.88,750.1,211.34,565.96,212.08,529.14z"/>
	</g>
	<g class="st9">
		<path class="st14" d="M897.53,309.83c-73.29,160.65-101.41,256.03-70.28,318.28s116.47,71.29,152.61,0
			S897.53,309.83,897.53,309.83z"/>
		<path class="st11" d="M900.72,451.03c0,0-11.37,262.76-9.83,296.76h21.64C912.53,747.79,899.73,500.49,900.72,451.03z"/>
	</g>
	<g class="st9">
		<path class="st10" d="M514.18,309.83c-73.29,160.65-101.41,256.03-70.28,318.28s116.47,71.29,152.61,0
			C632.66,556.82,514.18,309.83,514.18,309.83z"/>
		<path class="st11" d="M517.37,451.03c0,0-11.37,262.76-9.83,296.76h21.64C529.18,747.79,516.38,500.49,517.37,451.03z"/>
	</g>
	<g class="st9">
		<path class="st15" d="M707.08,292.22C633.79,452.86,605.67,548.25,636.8,610.5s116.47,71.29,152.61,0
			C825.56,539.21,707.08,292.22,707.08,292.22z"/>
		<path class="st11" d="M710.27,433.42c0,0-11.37,262.76-9.83,296.76h21.64C722.08,730.19,709.27,482.88,710.27,433.42z"/>
	</g>
	<g class="st9">
		<path class="st16" d="M1013.84,327.48c-73.29,160.65-101.41,256.03-70.28,318.28s116.47,71.29,152.61,0
			S1013.84,327.48,1013.84,327.48z"/>
		<path class="st11" d="M1017.03,468.68c0,0-11.37,262.76-9.83,296.76h21.64C1028.84,765.44,1016.03,518.14,1017.03,468.68z"/>
	</g>
</g>
<path class="st17" d="M0,746.76c131.92-46.39,772.23-114.52,1186.33-36.24v131.37H0V746.76z"/>
</svg>
