<?xml version="1.0" encoding="utf-8"?>
<!-- Generator: Adobe Illustrator 25.3.0, SVG Export Plug-In . SVG Version: 6.00 Build 0)  -->
<svg version="1.1" id="图层_1" xmlns="http://www.w3.org/2000/svg" xmlns:xlink="http://www.w3.org/1999/xlink" x="0px" y="0px"
	 viewBox="0 0 566.9 566.9" style="enable-background:new 0 0 566.9 566.9;" xml:space="preserve">
<style type="text/css">
	.st0{display:none;}
	.st1{display:inline;fill:#686868;}
	.st2{display:inline;fill:#727272;}
	.st3{display:inline;fill:#7E7E7F;}
	.st4{display:inline;fill:#919191;}
	.st5{display:inline;fill:#A0A0A0;}
	.st6{display:inline;fill:#BBBABA;}
	.st7{display:inline;fill:#DDDDDD;}
	.st8{display:inline;}
	.st9{fill:#BF1A20;}
	.st10{fill:#F7F7F7;}
	.st11{display:inline;fill:#EAE8E8;}
	.st12{display:inline;fill:#E2E2E1;}
	.st13{opacity:0.47;fill:#969696;}
</style>
<g id="图层_2_1_" class="st0">
</g>
<g id="图层_3" class="st0">
	<path class="st1" d="M92,392.7l81.3,1.2c0,0-4.7,31.7-0.8,47.8c8.4,34.9,20.9,66.1,52.9,105.4l-169.8-2.5
		c23.2-30.6,32.7-63.1,37.7-99.8C98.5,408.2,92,392.7,92,392.7z"/>
	<path class="st1" d="M221.1,405.4l89.1,1.2c0,0-5.1,31.7-0.9,47.8c9.2,34.9,22.9,66.1,57.9,105.4l-185.9-2.5
		c25.4-30.6,35.8-63.1,41.3-99.8C228.1,420.9,221.1,405.4,221.1,405.4z"/>
	<path class="st1" d="M370.3,389.3l101.4,1.3c0,0-5.8,35.6-1,53.7c10.5,39.2,26.1,74.2,66,118.4L325,560
		c28.9-34.4,40.8-70.9,47.1-112S370.3,389.3,370.3,389.3z"/>
</g>
<g id="图层_1_1_" class="st0">
	<path class="st2" d="M32.2,438.3c0,0-4,121,0,129.7h74.3V438.3H32.2z"/>
</g>
<g id="图层_5" class="st0">
	<polygon class="st3" points="69.9,333.2 70.4,317.6 116.5,317.7 116.5,334.8 	"/>
	<polygon class="st4" points="60.2,332.5 60.8,397.3 243.4,397.1 242.1,329.2 	"/>
</g>
<g id="图层_4" class="st0">
	<polygon class="st5" points="261.4,256.5 341.8,256.5 342.7,394.2 263.2,396.7 	"/>
	<polygon class="st6" points="199.5,250.9 199.8,397 267.8,397.3 266.3,253.3 	"/>
	<polygon class="st6" points="332.4,253.7 384.4,250.2 385.6,393.4 333.5,395.2 	"/>
</g>
<g id="图层_7" class="st0">
	<polygon class="st4" points="450.2,304.5 526,301.9 528.9,344.9 450.2,346.2 	"/>
	<polygon class="st5" points="415,306.2 417.2,334.5 453.9,334 453.4,289.8 431.3,290.8 430.6,306.2 	"/>
	<polygon class="st6" points="405.5,333 402.3,396.9 547.2,396.6 546.2,329.2 	"/>
</g>
<g id="图层_6" class="st0">
	<polygon class="st7" points="321.5,173.2 315.6,394.9 342.7,394.2 331.7,173 	"/>
	<g class="st8">
		<rect x="303.9" y="173" class="st9" width="38.9" height="13.1"/>
		<rect x="303.9" y="186.1" class="st10" width="38.9" height="13.1"/>
		<rect x="303.9" y="199.2" class="st9" width="38.9" height="13.1"/>
		<rect x="303.9" y="212.3" class="st10" width="38.9" height="13.1"/>
		<rect x="303.9" y="225.4" class="st9" width="38.9" height="13.1"/>
		<rect x="303.9" y="238.5" class="st10" width="38.9" height="13.1"/>
		<rect x="303.9" y="251.6" class="st9" width="38.9" height="13.1"/>
	</g>
	<polygon class="st11" points="233.3,382.3 233.2,397.3 417.7,396.7 417.7,379.9 	"/>
	<path class="st12" d="M321.3,173h9.4c0,0,36.3-6.6,33.1-28.4c0,0,56.4,17.9,73-15.6c0,0,31.2,28.1,110.1-21.8
		c0,0,138.3,43.9,153.8-75.9c37.7-19.3-11.6-99.7-64.8-79.2C582.3-85,501.6-67.6,489.6-29.7C453.9-50,385.7,19.6,406.7,67.7
		c0,0-45.2,0.8-42.9,29.4c0,0-23.4,16.6-19.1,31.8c0,0-21,5.1-15.6,26.1C329.1,155,318.2,161.3,321.3,173z"/>
</g>
<circle class="st13" cx="61.2" cy="-75.5" r="137.4"/>
<circle class="st13" cx="304.2" cy="-75.5" r="137.4"/>
<circle class="st13" cx="555.2" cy="-64.5" r="137.4"/>
<circle class="st13" cx="181.3" cy="-46.5" r="137.4"/>
<circle class="st13" cx="-25.9" cy="-55.5" r="137.4"/>
<circle class="st13" cx="420.8" cy="-46.5" r="137.4"/>
<circle class="st13" cx="652.3" cy="-46.5" r="137.4"/>
<circle class="st13" cx="-17.8" cy="-14.5" r="137.4"/>
<circle class="st13" cx="217.2" cy="5.5" r="137.4"/>
<circle class="st13" cx="476.2" cy="23.5" r="137.4"/>
<circle class="st13" cx="68.5" cy="-3.5" r="137.4"/>
<circle class="st13" cx="-104.9" cy="5.5" r="137.4"/>
<circle class="st13" cx="315.4" cy="-3.5" r="137.4"/>
<circle class="st13" cx="623.3" cy="5.5" r="137.4"/>
</svg>
