<svg id="图层_1" data-name="图层 1" xmlns="http://www.w3.org/2000/svg" viewBox="0 0 451.87 330.79"><defs><style>.cls-1{fill:#3b9960;}.cls-2,.cls-3{fill:none;stroke:#3b9960;stroke-miterlimit:10;}.cls-2{stroke-width:12px;}.cls-3{stroke-width:20px;}</style></defs><path class="cls-1" d="M38.36,399.56a13.15,13.15,0,0,1-4.58-2.1,12.61,12.61,0,0,1-3.45-3.68,14.45,14.45,0,0,1-1.88-4.65,24.19,24.19,0,0,1-.52-5V359.85a24.19,24.19,0,0,1,.52-5,14.45,14.45,0,0,1,1.88-4.65,12.61,12.61,0,0,1,3.45-3.68,13.35,13.35,0,0,1,4.58-2.11,21.29,21.29,0,0,1,5-.6,22.3,22.3,0,0,1,5.82.79,12.31,12.31,0,0,1,5.11,2.82,12.74,12.74,0,0,1,3.3,4.84A15.93,15.93,0,0,1,58.71,358H49.85a7.12,7.12,0,0,0-.79-3.23,4.72,4.72,0,0,0-2.36-2.28,7.93,7.93,0,0,0-3.31-.72,7.23,7.23,0,0,0-2.89.6,5.25,5.25,0,0,0-2.25,1.84,7.19,7.19,0,0,0-1.16,2.7,14.82,14.82,0,0,0-.3,3V384.1a14.64,14.64,0,0,0,.3,3,7.17,7.17,0,0,0,1.16,2.71,5.25,5.25,0,0,0,2.25,1.84,7.23,7.23,0,0,0,2.89.6,7.93,7.93,0,0,0,3.31-.72,4.74,4.74,0,0,0,2.36-2.29,7.05,7.05,0,0,0,.79-3.22h8.86a15.93,15.93,0,0,1-1.09,5.74,12.37,12.37,0,0,1-3.3,4.8,12.78,12.78,0,0,1-5.11,2.82,20.92,20.92,0,0,1-10.85.22Z" transform="translate(-24.06 -69.38)"/><path class="cls-1" d="M76,344.38H86.19l12.53,55.18h-9l-2.47-11.93H74.92l-2.4,11.93h-9Zm9.61,35.29-3.45-16.89c-.15-.9-.31-1.79-.49-2.67s-.36-1.76-.56-2.66c-.15.9-.33,1.79-.53,2.66s-.37,1.77-.52,2.67l-3.45,16.89Z" transform="translate(-24.06 -69.38)"/><path class="cls-1" d="M103.6,344.38h14.72a22.06,22.06,0,0,1,5.22.64,13.44,13.44,0,0,1,4.76,2.25,13.07,13.07,0,0,1,3.53,4,16.08,16.08,0,0,1,1.88,4.95,26.73,26.73,0,0,1,.52,5.26,25.68,25.68,0,0,1-.94,6.87,13.06,13.06,0,0,1-3.49,5.93,14.56,14.56,0,0,1-5.85,3.56l11.71,21.77h-9.31L115,378.47h-2.55v21.09H103.6Zm14.72,26.13a7.5,7.5,0,0,0,3.11-.68,5.36,5.36,0,0,0,2.44-2.1,8.56,8.56,0,0,0,1.2-3,17.73,17.73,0,0,0,.3-3.26,17.92,17.92,0,0,0-.3-3.27,8.16,8.16,0,0,0-1.2-3,5.61,5.61,0,0,0-2.44-2.1,7.25,7.25,0,0,0-3.11-.72h-5.86v18.17Z" transform="translate(-24.06 -69.38)"/><path class="cls-1" d="M141.14,344.38h14.42a19.87,19.87,0,0,1,4.73.57,12.44,12.44,0,0,1,4.31,1.95,12.25,12.25,0,0,1,3.31,3.42,13.37,13.37,0,0,1,1.83,4.39,21.84,21.84,0,0,1,.53,4.76,19.56,19.56,0,0,1-.49,4.36,10.27,10.27,0,0,1-1.84,4,11.81,11.81,0,0,1-3.15,2.93,14.64,14.64,0,0,1,4.2,3.07,10.92,10.92,0,0,1,2.63,4.51,18.28,18.28,0,0,1,.75,5.18,21.56,21.56,0,0,1-.64,5.22,13.76,13.76,0,0,1-6.08,8.37,14.61,14.61,0,0,1-4.88,2,26.08,26.08,0,0,1-5.21.52H141.14Zm14.42,22.68a6.2,6.2,0,0,0,2.55-.57,4.51,4.51,0,0,0,2-1.72,7.24,7.24,0,0,0,1-2.48,14,14,0,0,0,.26-2.67,12,12,0,0,0-.52-3.52,4.88,4.88,0,0,0-2.07-2.74,5.81,5.81,0,0,0-3.26-1H150v14.72Zm3.15,24.06a6.28,6.28,0,0,0,2.74-1.73,6.79,6.79,0,0,0,1.61-2.81,11.72,11.72,0,0,0,.45-3.23,11.28,11.28,0,0,0-.86-4.28,5.73,5.73,0,0,0-2.89-3.08,9.58,9.58,0,0,0-4.2-1H150v16.6h5.56A10.77,10.77,0,0,0,158.71,391.12Z" transform="translate(-24.06 -69.38)"/><path class="cls-1" d="M188.63,399.56A13.37,13.37,0,0,1,184,397.5a12.74,12.74,0,0,1-3.49-3.64,13.92,13.92,0,0,1-1.92-4.69,24.79,24.79,0,0,1-.52-5.07V359.85a24.79,24.79,0,0,1,.52-5.07,13.92,13.92,0,0,1,1.92-4.69,13.16,13.16,0,0,1,3.49-3.68,12.5,12.5,0,0,1,4.62-2.06,22.79,22.79,0,0,1,10.13,0,12.5,12.5,0,0,1,4.62,2.06,13.3,13.3,0,0,1,3.49,3.68,14.11,14.11,0,0,1,1.91,4.69,24.8,24.8,0,0,1,.53,5.07V384.1a24.8,24.8,0,0,1-.53,5.07,14.11,14.11,0,0,1-1.91,4.69,12.88,12.88,0,0,1-3.49,3.64,13.37,13.37,0,0,1-4.62,2.06,21.33,21.33,0,0,1-10.13,0Zm8-7.95a5.48,5.48,0,0,0,2.33-1.84,7,7,0,0,0,1.2-2.71,14.64,14.64,0,0,0,.3-3V359.85a14.82,14.82,0,0,0-.3-3,7,7,0,0,0-1.2-2.7,5.48,5.48,0,0,0-2.33-1.84,7.43,7.43,0,0,0-5.85,0,5.14,5.14,0,0,0-2.29,1.84,7.82,7.82,0,0,0-1.21,2.7,13.52,13.52,0,0,0-.33,3V384.1a13.36,13.36,0,0,0,.33,3,7.78,7.78,0,0,0,1.21,2.71,5.14,5.14,0,0,0,2.29,1.84,7.43,7.43,0,0,0,5.85,0Z" transform="translate(-24.06 -69.38)"/><path class="cls-1" d="M216.22,344.38h9.23l13.66,42-.9-6.61q-.45-3.3-.63-6.64t-.19-6.64V344.38h8.86v55.18H237l-13.66-42,.9,6.6q.45,3.32.64,6.61c.12,2.2.19,4.43.19,6.68v22.07h-8.86Z" transform="translate(-24.06 -69.38)"/><path class="cls-1" d="M255.63,344.38h28.15v8H264.49v14h14.79v7.95H264.49v17.35h19.29v7.95H255.63Z" transform="translate(-24.06 -69.38)"/><path class="cls-1" d="M301.35,399.56a11.72,11.72,0,0,1-4.47-2.14,13.49,13.49,0,0,1-3.3-3.71,14.24,14.24,0,0,1-1.8-4.66,25.18,25.18,0,0,1-.49-4.95V344.38h8.86V384.1a16.16,16.16,0,0,0,.26,2.85,7.68,7.68,0,0,0,1,2.67,5.4,5.4,0,0,0,2.11,1.91,5.91,5.91,0,0,0,2.74.68,6.12,6.12,0,0,0,2.77-.68,5,5,0,0,0,2.11-1.91,8,8,0,0,0,1-2.67,15.26,15.26,0,0,0,.26-2.85V344.38h8.86V384.1a25.18,25.18,0,0,1-.49,4.95,14.62,14.62,0,0,1-1.76,4.66,12.59,12.59,0,0,1-3.3,3.71,12,12,0,0,1-4.51,2.14,20.43,20.43,0,0,1-9.91,0Z" transform="translate(-24.06 -69.38)"/><path class="cls-1" d="M339.42,352.34H327.93v-8h31.83v8H348.27v47.22h-8.85Z" transform="translate(-24.06 -69.38)"/><path class="cls-1" d="M366.37,344.38h14.71a22.06,22.06,0,0,1,5.22.64,13.49,13.49,0,0,1,4.77,2.25,13.2,13.2,0,0,1,3.53,4,16.06,16.06,0,0,1,1.87,4.95,26.74,26.74,0,0,1,.53,5.26,26.09,26.09,0,0,1-.94,6.87,13.15,13.15,0,0,1-3.49,5.93,14.6,14.6,0,0,1-5.86,3.56l11.71,21.77h-9.3l-11.34-21.09h-2.55v21.09h-8.86Zm14.71,26.13a7.57,7.57,0,0,0,3.12-.68,5.41,5.41,0,0,0,2.44-2.1,8.56,8.56,0,0,0,1.2-3,17.73,17.73,0,0,0,.3-3.26,17.92,17.92,0,0,0-.3-3.27,8.16,8.16,0,0,0-1.2-3,5.66,5.66,0,0,0-2.44-2.1,7.32,7.32,0,0,0-3.12-.72h-5.85v18.17Z" transform="translate(-24.06 -69.38)"/><path class="cls-1" d="M413.81,344.38H424l12.54,55.18h-9l-2.47-11.93H412.76l-2.4,11.93h-9Zm9.61,35.29L420,362.78c-.15-.9-.31-1.79-.49-2.67s-.36-1.76-.56-2.66c-.15.9-.33,1.79-.53,2.66s-.37,1.77-.52,2.67l-3.45,16.89Z" transform="translate(-24.06 -69.38)"/><path class="cls-1" d="M443.32,344.38h8.86v47.23h19.89v7.95H443.32Z" transform="translate(-24.06 -69.38)"/><path class="cls-2" d="M176.61,101a118.09,118.09,0,0,1,146.77,0" transform="translate(-24.06 -69.38)"/><path class="cls-2" d="M324,285.39a118.09,118.09,0,0,1-148,0" transform="translate(-24.06 -69.38)"/><path class="cls-2" d="M323.38,101l1.07.86" transform="translate(-24.06 -69.38)"/><path class="cls-2" d="M323.7,101.66A101.9,101.9,0,1,1,324,285.31" transform="translate(-24.06 -69.38)"/><path class="cls-2" d="M176.05,285.31a101.89,101.89,0,1,1-.29-183.91" transform="translate(-24.06 -69.38)"/><path class="cls-2" d="M176,101a665,665,0,0,1,6.43,92.46,664.73,664.73,0,0,1-6.35,91.89" transform="translate(-24.06 -69.38)"/><path class="cls-2" d="M324,285.42a667.72,667.72,0,0,1,0-183.88" transform="translate(-24.06 -69.38)"/><line class="cls-3" x1="188.9" y1="103.5" x2="268.21" y2="103.5"/><line class="cls-3" x1="188.9" y1="144.7" x2="268.21" y2="144.7"/></svg>