<svg id="图层_1" data-name="图层 1" xmlns="http://www.w3.org/2000/svg" viewBox="0 0 451.87 347.74"><defs><style>.cls-1{fill:#3b9960;}.cls-2,.cls-3{fill:none;stroke:#3b9960;stroke-miterlimit:10;}.cls-2{stroke-width:12px;}.cls-3{stroke-width:20px;}</style></defs><path class="cls-1" d="M151.79,406.14H137.62v6.31h-8.38v-24c-.52.8-1.09,1.64-1.73,2.5-.29-.75-.73-1.73-1.34-2.94s-1.23-2.42-1.9-3.62a23.64,23.64,0,0,0-1.85-2.94,48,48,0,0,0,6.26-14.3,142,142,0,0,0,3.58-17.83h-8.55v-9h30.67v9H141.51c-.47,3-1,6-1.52,9a88.67,88.67,0,0,1-2,8.72h13.83Zm-8.56-8.81V375.82h-5.61v21.51ZM204,371.68h-34A172.65,172.65,0,0,1,166.56,396,58,58,0,0,1,159,415a23.54,23.54,0,0,0-2-1.95c-.89-.78-1.83-1.55-2.81-2.33a17.7,17.7,0,0,0-2.59-1.77,44.26,44.26,0,0,0,6.57-16.16A149.52,149.52,0,0,0,161,371.68H153.6V363h7.86l.09-4.32,9.07.52-.18,3.8H204Zm-2.33-32.74v18.92H157V338.94h8.46v10.62h9.07V336.43h9.16v13.13h9.07V338.94Zm-20.47,34.12,8.29-.09c-.06,3-.18,5.86-.35,8.6s-.4,5.31-.69,7.73a37.36,37.36,0,0,0,6,12.44,23.28,23.28,0,0,0,10.67,7.86,16.8,16.8,0,0,0-2.89,3.24,38.42,38.42,0,0,0-2.46,3.84,26.58,26.58,0,0,1-8.55-6,33,33,0,0,1-5.88-8.77,25.83,25.83,0,0,1-6.13,8.73,35.7,35.7,0,0,1-10.45,6.47,22,22,0,0,0-2.21-3.8,14.54,14.54,0,0,0-3-3.28,29.57,29.57,0,0,0,9.46-5.57,20,20,0,0,0,5.18-7.65,38.75,38.75,0,0,0,2.25-10.27Q181,380.66,181.16,373.06Zm-6.92,23.41L168,393.62a32.63,32.63,0,0,0,2.54-6.91,49.3,49.3,0,0,0,1.43-7.95l6.3,1a68.15,68.15,0,0,1-1.38,8.68A34.24,34.24,0,0,1,174.24,396.47Zm21.95-.78-5.62-2.24q1.22-3.12,2.55-7.48c.89-2.9,1.57-5.51,2-7.81l7.6,2.59q-1.81,3.79-3.46,7.95C198.2,391.46,197.16,393.79,196.19,395.69Z" transform="translate(-24.06 -69.38)"/><path class="cls-1" d="M255.27,351.29h30.32V394.4h-10.8v-4.32H255.27V417H244.39V390.08H225v4.75H214.58V351.29h29.81V336.35h10.88ZM225,380h19.44V361.4H225Zm30.32,0h19.52V361.4H255.27Z" transform="translate(-24.06 -69.38)"/><path class="cls-1" d="M323,371.5V373c.87.87,1.93,2,3.2,3.42s2.57,2.89,3.93,4.44l3.67,4.24c1.09,1.26,1.87,2.19,2.33,2.76l-5.87,8.55q-1.22-2.24-3.16-5.27c-1.29-2-2.66-4-4.1-6v31.87H312.63V386.19A120.62,120.62,0,0,1,307,397.64a49.43,49.43,0,0,1-6.48,9.19,24.58,24.58,0,0,0-2.29-5c-1.06-1.85-2-3.4-2.89-4.67a59.64,59.64,0,0,0,8.34-11.62,88.84,88.84,0,0,0,6.43-14H297.25V362h15.38V350.77c-2.14.35-4.22.67-6.27,1l-6.09.87a33.94,33.94,0,0,0-1.12-4.06,27.79,27.79,0,0,0-1.64-4q5.61-.76,11.45-1.94t11.09-2.55a79.16,79.16,0,0,0,9.16-2.93l6.65,8q-2.85,1-6.13,1.94T323,348.79V362h12.53v9.5Zm14.77-27h34.55v67.81H361.69v-6.22H347.87v6.82H337.76Zm10.11,51.74h13.82V354.32H347.87Z" transform="translate(-24.06 -69.38)"/><path class="cls-2" d="M176.61,101a118.09,118.09,0,0,1,146.77,0" transform="translate(-24.06 -69.38)"/><path class="cls-2" d="M324,285.39a118.09,118.09,0,0,1-148,0" transform="translate(-24.06 -69.38)"/><path class="cls-2" d="M323.38,101l1.07.86" transform="translate(-24.06 -69.38)"/><path class="cls-2" d="M323.7,101.66A101.9,101.9,0,1,1,324,285.31" transform="translate(-24.06 -69.38)"/><path class="cls-2" d="M176.05,285.31a101.89,101.89,0,1,1-.29-183.91" transform="translate(-24.06 -69.38)"/><path class="cls-2" d="M176,101a665,665,0,0,1,6.43,92.46,664.73,664.73,0,0,1-6.35,91.89" transform="translate(-24.06 -69.38)"/><path class="cls-2" d="M324,285.42a667.72,667.72,0,0,1,0-183.88" transform="translate(-24.06 -69.38)"/><line class="cls-3" x1="188.9" y1="103.5" x2="268.21" y2="103.5"/><line class="cls-3" x1="188.9" y1="144.7" x2="268.21" y2="144.7"/></svg>