<?xml version="1.0" encoding="utf-8"?>
<!-- Generator: Adobe Illustrator 25.2.0, SVG Export Plug-In . SVG Version: 6.00 Build 0)  -->
<svg version="1.1" id="图层_1" xmlns="http://www.w3.org/2000/svg" xmlns:xlink="http://www.w3.org/1999/xlink" x="0px" y="0px"
	 viewBox="0 0 500 500" enable-background="new 0 0 500 500" xml:space="preserve">
<g>
	<rect x="42.41" y="29.67" fill="#114326" width="100" height="238.02"/>
	<rect x="158.58" y="29.67" fill="#114326" width="60" height="68.31"/>
	<rect x="158.58" y="192.62" fill="#114326" width="60" height="75.08"/>
	<rect x="240" y="29.67" fill="#114326" width="105.83" height="238.02"/>
	<rect x="368.38" y="144.35" fill="#114326" width="66.93" height="123.35"/>
	
		<rect x="295.84" y="210.79" transform="matrix(0.3381 0.9411 -0.9411 0.3381 434.4706 -188.9097)" fill="#114326" width="111.4" height="7.28"/>
	<g>
		<path fill="#114326" d="M58.45,367.79c-2.53-0.61-4.87-1.69-7.02-3.22c-2.15-1.53-3.91-3.41-5.29-5.63
			c-1.38-2.22-2.34-4.6-2.88-7.13c-0.54-2.53-0.8-5.1-0.8-7.71v-37.15c0-2.61,0.27-5.17,0.8-7.71c0.54-2.53,1.5-4.91,2.88-7.13
			c1.38-2.22,3.14-4.1,5.29-5.63c2.15-1.53,4.49-2.61,7.02-3.22c2.53-0.61,5.1-0.92,7.71-0.92c2.99,0,5.96,0.4,8.91,1.21
			c2.95,0.8,5.56,2.24,7.82,4.31c2.26,2.07,3.95,4.54,5.06,7.42c1.11,2.88,1.67,5.81,1.67,8.8H76.04c0-1.69-0.4-3.33-1.21-4.94
			c-0.81-1.61-2.01-2.78-3.62-3.51c-1.61-0.73-3.3-1.09-5.06-1.09c-1.53,0-3.01,0.31-4.43,0.92c-1.42,0.61-2.57,1.55-3.45,2.82
			c-0.88,1.27-1.48,2.65-1.78,4.14c-0.31,1.5-0.46,3.01-0.46,4.54v37.15c0,1.53,0.15,3.05,0.46,4.54c0.31,1.5,0.9,2.88,1.78,4.14
			c0.88,1.26,2.03,2.2,3.45,2.82c1.42,0.61,2.89,0.92,4.43,0.92c1.76,0,3.45-0.36,5.06-1.09c1.61-0.73,2.82-1.9,3.62-3.51
			c0.8-1.61,1.21-3.26,1.21-4.94h13.57c0,2.99-0.56,5.92-1.67,8.8c-1.11,2.88-2.8,5.33-5.06,7.36c-2.26,2.03-4.87,3.47-7.82,4.31
			c-2.95,0.84-5.92,1.26-8.91,1.26C63.55,368.71,60.98,368.4,58.45,367.79z"/>
		<path fill="#114326" d="M116.06,283.26h15.64l19.21,84.52h-13.8l-3.79-18.29h-18.86l-3.68,18.29h-13.8L116.06,283.26z
			 M130.78,337.31l-5.29-25.88c-0.23-1.38-0.48-2.74-0.75-4.08c-0.27-1.34-0.56-2.7-0.86-4.08c-0.23,1.38-0.5,2.74-0.81,4.08
			c-0.31,1.34-0.57,2.7-0.8,4.08l-5.29,25.88H130.78z"/>
		<path fill="#114326" d="M158.38,283.26h22.54c2.68,0,5.35,0.33,7.99,0.98c2.65,0.65,5.08,1.8,7.3,3.45
			c2.22,1.65,4.03,3.66,5.41,6.04c1.38,2.38,2.34,4.91,2.88,7.59c0.54,2.68,0.8,5.37,0.8,8.05c0,3.53-0.48,7.04-1.44,10.52
			c-0.96,3.49-2.74,6.52-5.35,9.08c-2.61,2.57-5.6,4.39-8.97,5.46l17.94,33.35h-14.26l-17.36-32.31h-3.91v32.31h-13.57V283.26z
			 M180.92,323.28c1.61,0,3.2-0.34,4.77-1.04c1.57-0.69,2.82-1.76,3.74-3.22c0.92-1.46,1.53-3.01,1.84-4.66
			c0.31-1.65,0.46-3.32,0.46-5c0-1.69-0.15-3.35-0.46-5c-0.31-1.65-0.92-3.18-1.84-4.6c-0.92-1.42-2.17-2.49-3.74-3.22
			c-1.57-0.73-3.16-1.09-4.77-1.09h-8.97v27.83H180.92z"/>
		<path fill="#114326" d="M215.88,283.26h22.08c2.45,0,4.87,0.29,7.25,0.86c2.38,0.58,4.58,1.57,6.61,2.99
			c2.03,1.42,3.72,3.16,5.06,5.23c1.34,2.07,2.28,4.31,2.82,6.73c0.54,2.42,0.8,4.85,0.8,7.3c0,2.22-0.25,4.45-0.75,6.67
			c-0.5,2.22-1.44,4.26-2.82,6.1s-2.99,3.33-4.83,4.48c2.38,1.15,4.52,2.72,6.44,4.72c1.92,1.99,3.26,4.29,4.03,6.9
			c0.76,2.61,1.15,5.25,1.15,7.94c0,2.68-0.33,5.35-0.98,7.99c-0.65,2.64-1.78,5.08-3.39,7.3c-1.61,2.22-3.58,4.06-5.92,5.52
			c-2.34,1.46-4.83,2.46-7.48,2.99c-2.64,0.54-5.31,0.8-7.99,0.8h-22.08V283.26z M237.96,317.99c1.3,0,2.61-0.29,3.91-0.86
			c1.3-0.58,2.34-1.46,3.1-2.65c0.77-1.19,1.28-2.45,1.55-3.79c0.27-1.34,0.4-2.7,0.4-4.08c0-1.84-0.27-3.64-0.8-5.41
			c-0.54-1.76-1.59-3.16-3.16-4.2c-1.57-1.04-3.24-1.55-5-1.55h-8.51v22.54H237.96z M242.79,354.85c1.61-0.5,3.01-1.38,4.2-2.64
			c1.19-1.27,2.01-2.7,2.47-4.31c0.46-1.61,0.69-3.26,0.69-4.95c0-2.22-0.44-4.41-1.32-6.55c-0.88-2.15-2.36-3.72-4.43-4.71
			c-2.07-1-4.22-1.5-6.44-1.5h-8.51v25.42h8.51C239.57,355.6,241.18,355.35,242.79,354.85z"/>
		<path fill="#114326" d="M288.62,367.79c-2.57-0.61-4.93-1.67-7.07-3.16c-2.15-1.5-3.93-3.35-5.35-5.58
			c-1.42-2.22-2.4-4.62-2.93-7.19c-0.54-2.57-0.8-5.15-0.8-7.76v-37.15c0-2.61,0.27-5.19,0.8-7.76c0.54-2.57,1.51-4.96,2.93-7.19
			c1.42-2.22,3.2-4.1,5.35-5.63c2.15-1.53,4.5-2.59,7.07-3.16c2.57-0.58,5.16-0.86,7.76-0.86c2.61,0,5.19,0.29,7.76,0.86
			c2.57,0.58,4.92,1.63,7.07,3.16c2.15,1.54,3.93,3.41,5.35,5.63c1.42,2.22,2.4,4.62,2.93,7.19c0.54,2.57,0.8,5.16,0.8,7.76v37.15
			c0,2.61-0.27,5.19-0.8,7.76c-0.54,2.57-1.51,4.96-2.93,7.19c-1.42,2.22-3.2,4.08-5.35,5.58c-2.15,1.5-4.5,2.55-7.07,3.16
			c-2.57,0.61-5.16,0.92-7.76,0.92C293.78,368.71,291.19,368.4,288.62,367.79z M300.87,355.6c1.46-0.61,2.64-1.55,3.56-2.82
			c0.92-1.27,1.53-2.65,1.84-4.14c0.31-1.5,0.46-3.01,0.46-4.54v-37.15c0-1.53-0.15-3.05-0.46-4.54c-0.31-1.5-0.92-2.88-1.84-4.14
			c-0.92-1.26-2.11-2.2-3.56-2.82c-1.46-0.61-2.95-0.92-4.49-0.92c-1.53,0-3.03,0.31-4.49,0.92c-1.46,0.61-2.63,1.55-3.51,2.82
			c-0.88,1.27-1.5,2.65-1.84,4.14c-0.35,1.5-0.52,3.01-0.52,4.54v37.15c0,1.53,0.17,3.05,0.52,4.54c0.34,1.5,0.96,2.88,1.84,4.14
			c0.88,1.26,2.05,2.2,3.51,2.82c1.46,0.61,2.95,0.92,4.49,0.92C297.92,356.52,299.41,356.21,300.87,355.6z"/>
		<path fill="#114326" d="M330.88,283.26h14.14l20.93,64.28c-0.46-3.37-0.92-6.75-1.38-10.12c-0.46-3.37-0.79-6.77-0.98-10.18
			c-0.19-3.41-0.29-6.8-0.29-10.18v-33.81h13.57v84.52h-14.14l-20.93-64.29c0.46,3.38,0.92,6.75,1.38,10.12
			c0.46,3.38,0.79,6.75,0.98,10.12c0.19,3.38,0.29,6.79,0.29,10.24v33.81h-13.57V283.26z"/>
	</g>
	<g>
		<path fill="#114326" d="M43.38,382.58h14.14l20.93,64.28c-0.46-3.37-0.92-6.75-1.38-10.12c-0.46-3.37-0.79-6.76-0.98-10.18
			c-0.19-3.41-0.29-6.8-0.29-10.18v-33.81h13.57v84.52H75.24l-20.93-64.29c0.46,3.38,0.92,6.75,1.38,10.12
			c0.46,3.38,0.79,6.75,0.98,10.12c0.19,3.37,0.29,6.79,0.29,10.24v33.81H43.38V382.58z"/>
		<path fill="#114326" d="M103.76,382.58h43.12v12.19h-29.55v21.39h22.65v12.19h-22.65v26.56h29.55v12.19h-43.12V382.58z"/>
		<path fill="#114326" d="M173.79,467.1c-2.53-0.61-4.81-1.71-6.84-3.28c-2.03-1.57-3.72-3.47-5.06-5.69
			c-1.34-2.22-2.26-4.6-2.76-7.13c-0.5-2.53-0.75-5.06-0.75-7.59v-60.83h13.57v60.83c0,1.46,0.13,2.92,0.4,4.37
			c0.27,1.46,0.8,2.82,1.61,4.08c0.81,1.26,1.88,2.24,3.22,2.93c1.34,0.69,2.74,1.04,4.2,1.04c1.46,0,2.88-0.35,4.25-1.04
			c1.38-0.69,2.45-1.67,3.22-2.93c0.77-1.27,1.28-2.62,1.55-4.08c0.27-1.46,0.4-2.91,0.4-4.37v-60.83h13.57v60.83
			c0,2.53-0.25,5.06-0.75,7.59c-0.5,2.53-1.4,4.91-2.7,7.13c-1.3,2.22-2.99,4.12-5.06,5.69c-2.07,1.57-4.37,2.67-6.9,3.28
			s-5.06,0.92-7.59,0.92S176.32,467.72,173.79,467.1z"/>
		<path fill="#114326" d="M232.1,394.77H214.5v-12.19h48.76v12.19h-17.6v72.33H232.1V394.77z"/>
		<path fill="#114326" d="M273.38,382.58h22.54c2.68,0,5.35,0.33,7.99,0.98c2.65,0.65,5.08,1.8,7.3,3.45
			c2.22,1.65,4.03,3.66,5.41,6.04c1.38,2.38,2.34,4.91,2.88,7.59c0.54,2.68,0.8,5.37,0.8,8.05c0,3.53-0.48,7.04-1.44,10.52
			c-0.96,3.49-2.74,6.52-5.35,9.08c-2.61,2.57-5.6,4.39-8.97,5.46l17.94,33.35h-14.26l-17.36-32.32h-3.91v32.32h-13.57V382.58z
			 M295.92,422.6c1.61,0,3.2-0.34,4.77-1.04c1.57-0.69,2.82-1.76,3.74-3.22c0.92-1.46,1.53-3.01,1.84-4.66
			c0.31-1.65,0.46-3.31,0.46-5c0-1.69-0.15-3.35-0.46-5c-0.31-1.65-0.92-3.18-1.84-4.6c-0.92-1.42-2.17-2.49-3.74-3.22
			c-1.57-0.73-3.16-1.09-4.77-1.09h-8.97v27.83H295.92z"/>
		<path fill="#114326" d="M346.06,382.58h15.64l19.21,84.52h-13.8l-3.79-18.29h-18.86l-3.68,18.29h-13.8L346.06,382.58z
			 M360.78,436.63l-5.29-25.88c-0.23-1.38-0.48-2.74-0.75-4.08c-0.27-1.34-0.56-2.7-0.86-4.08c-0.23,1.38-0.5,2.74-0.8,4.08
			c-0.31,1.34-0.58,2.7-0.81,4.08l-5.29,25.88H360.78z"/>
		<path fill="#114326" d="M391.26,382.58h13.57v72.33h30.47v12.19h-44.04V382.58z"/>
	</g>
	<g display="none">
		<path display="inline" fill="#114326" d="M-789.97,1042.52h-17.59c-0.54,4.37-1.25,8.64-2.13,12.82
			c-0.88,4.18-1.86,8.3-2.93,12.36h19.09v49.91h-19.44v8.97h-8.85v-34.85c-0.54,1-1.13,2.01-1.78,3.05
			c-0.65,1.04-1.29,2.05-1.9,3.05c-0.54-1.23-1.4-2.86-2.59-4.89c-1.19-2.03-2.21-3.62-3.05-4.77c3.68-5.52,6.61-12.29,8.8-20.3
			c2.18-8.01,3.85-16.46,5-25.36h-12.42v-9.43h39.79V1042.52z M-802.5,1108.3v-31.28h-10.47v31.28H-802.5z M-724.53,1071.73h-45.66
			c-0.92,11.96-2.51,22.81-4.77,32.54c-2.26,9.74-5.77,18.13-10.52,25.19c-0.77-0.84-1.97-1.96-3.62-3.34
			c-1.65-1.38-3.05-2.45-4.2-3.22c4.45-5.9,7.67-13.24,9.66-22.02c1.99-8.78,3.33-18.5,4.03-29.15h-11.16v-9.08h11.62l0.23-6.44
			l9.54,0.58l-0.34,5.87h45.2V1071.73z M-728.33,1030.45v24.04h-57.5v-24.04h8.97v15.29h14.83V1027h9.54v18.75h14.83v-15.29H-728.33
			z M-753.52,1073.69h8.86c-0.08,3.99-0.23,7.78-0.46,11.38c-0.23,3.6-0.54,6.98-0.92,10.12c1.69,6.9,4.41,12.9,8.17,18
			c3.75,5.1,8.7,8.8,14.83,11.1c-1,0.84-2.05,2.01-3.16,3.51c-1.11,1.5-1.97,2.82-2.59,3.97c-4.91-2.15-9.03-5.12-12.36-8.91
			c-3.34-3.79-6.12-8.22-8.34-13.28c-1.92,5.14-4.7,9.58-8.34,13.34c-3.64,3.76-8.64,6.94-15.01,9.54
			c-0.54-1.07-1.36-2.38-2.47-3.91c-1.11-1.53-2.13-2.68-3.05-3.45c5.52-2.07,9.89-4.62,13.11-7.65c3.22-3.03,5.65-6.61,7.3-10.75
			c1.65-4.14,2.76-8.93,3.33-14.38C-754.03,1086.88-753.67,1080.67-753.52,1073.69z M-765.13,1105.66l-6.79-3.22
			c1.53-2.53,2.78-5.67,3.74-9.43c0.96-3.76,1.63-7.4,2.01-10.93l6.9,1.04c-0.31,3.76-0.98,7.72-2.01,11.9
			C-762.31,1099.2-763.6,1102.75-765.13,1105.66z M-735.81,1104.62l-6.09-2.42c0.77-1.92,1.59-4.08,2.47-6.5
			c0.88-2.42,1.71-4.89,2.47-7.42c0.77-2.53,1.38-4.79,1.84-6.78l8.17,2.88c-1.46,3.45-2.95,7.01-4.49,10.69
			C-732.97,1098.76-734.43,1101.94-735.81,1104.62z"/>
		<path display="inline" fill="#114326" d="M-657.03,1047.01h41.05v54.97h-11.15v-6.21h-29.9v36.57h-11.16v-36.57h-29.79v6.79
			h-10.69v-55.54h40.48V1027h11.16V1047.01z M-697.97,1085.3h29.79v-27.83h-29.79V1085.3z M-657.03,1085.3h29.9v-27.83h-29.9V1085.3
			z"/>
		<path display="inline" fill="#114326" d="M-566.64,1041.37v19.32h18.52v9.89h-18.52v2.65c1.15,1.15,2.61,2.7,4.37,4.66
			c1.76,1.96,3.62,4.04,5.58,6.27c1.95,2.22,3.7,4.25,5.23,6.09c1.53,1.84,2.64,3.18,3.33,4.03l-6.44,8.74
			c-1.15-2.07-2.89-4.75-5.23-8.05c-2.34-3.3-4.62-6.48-6.84-9.55v46.81h-10.69v-46.23c-2.61,6.06-5.5,11.87-8.68,17.42
			c-3.18,5.56-6.46,10.14-9.83,13.74c-0.54-1.53-1.36-3.22-2.47-5.06c-1.11-1.84-2.17-3.45-3.16-4.83
			c2.84-2.84,5.58-6.25,8.22-10.24c2.64-3.99,5.12-8.26,7.42-12.82c2.3-4.56,4.26-9.1,5.87-13.63h-18.75v-9.89h21.39v-17.13
			c-2.99,0.54-5.98,0.98-8.97,1.32c-2.99,0.34-5.9,0.71-8.74,1.09c-0.23-1.15-0.63-2.51-1.21-4.08c-0.58-1.57-1.17-2.97-1.78-4.2
			c5.06-0.69,10.21-1.53,15.47-2.53c5.25-1,10.25-2.11,15.01-3.33c4.75-1.23,8.82-2.49,12.19-3.79l7.13,8.28
			C-553.68,1038.38-559.82,1040.07-566.64,1041.37z M-544.44,1037.58h43.7v88.78h-10.92v-8.51h-22.43v9.31h-10.35V1037.58z
			 M-534.1,1107.61h22.43v-59.8h-22.43V1107.61z"/>
	</g>
</g>
<g>
</g>
<g>
</g>
<g>
</g>
<g>
</g>
<g>
</g>
<g>
</g>
</svg>
