<svg id="图层_1" data-name="图层 1" xmlns="http://www.w3.org/2000/svg" viewBox="0 0 451.87 330.79"><defs><style>.cls-1{fill:#3b9960;}.cls-2,.cls-3{fill:none;stroke:#3b9960;stroke-miterlimit:10;}.cls-2{stroke-width:12px;}.cls-3{stroke-width:20px;}</style></defs><path class="cls-1" d="M38.4,399.6a13.25,13.25,0,0,1-4.54-2,12.48,12.48,0,0,1-3.49-3.53,13.06,13.06,0,0,1-1.92-4.58,23.79,23.79,0,0,1-.52-4.95v-9.76a24,24,0,0,1,.52-5,13.21,13.21,0,0,1,1.92-4.58,12.58,12.58,0,0,1,3.49-3.52,13.25,13.25,0,0,1,4.54-2,21.88,21.88,0,0,1,5-.57,22.64,22.64,0,0,1,5.78.75,12.48,12.48,0,0,1,5.11,2.75,12.23,12.23,0,0,1,3.34,4.76,15.65,15.65,0,0,1,1.09,5.71H49.85A6.66,6.66,0,0,0,49,370a4.64,4.64,0,0,0-2.4-2.18,8.65,8.65,0,0,0-3.23-.64,6.93,6.93,0,0,0-3.64,1A5.21,5.21,0,0,0,37.42,371a11.64,11.64,0,0,0-.63,3.79v9.76a11.71,11.71,0,0,0,.63,3.75,5.22,5.22,0,0,0,2.33,2.89,6.93,6.93,0,0,0,3.64,1,8.14,8.14,0,0,0,3.23-.68,4.81,4.81,0,0,0,2.4-2.18,6.45,6.45,0,0,0,.83-3.15h8.86a15.65,15.65,0,0,1-1.09,5.71,12,12,0,0,1-3.34,4.73,13.08,13.08,0,0,1-5.11,2.74,21.81,21.81,0,0,1-10.77.22Z" transform="translate(-24.06 -69.38)"/><path class="cls-1" d="M71.92,399.41a8.64,8.64,0,0,1-3.83-2.51,10.47,10.47,0,0,1-2.25-4.06,16.18,16.18,0,0,1-.68-4.61,14.57,14.57,0,0,1,.83-4.84,9.68,9.68,0,0,1,2.7-4.06,14.27,14.27,0,0,1,4.21-2.63,20.07,20.07,0,0,1,4.76-1.27,35.17,35.17,0,0,1,4.92-.34h4.66v-2.55a6,6,0,0,0-.79-3,4.13,4.13,0,0,0-2.33-1.91,9.4,9.4,0,0,0-3-.53,10.3,10.3,0,0,0-2.89.41,4.6,4.6,0,0,0-2.33,1.62,4.22,4.22,0,0,0-.94,2.63H66.07a12.74,12.74,0,0,1,1.16-5.3,11.15,11.15,0,0,1,3.38-4.31,12.62,12.62,0,0,1,5-2.37,24.21,24.21,0,0,1,10-.22,14.7,14.7,0,0,1,4.32,1.5A11.22,11.22,0,0,1,93.43,364a10.66,10.66,0,0,1,2.06,4,17.48,17.48,0,0,1,.6,4.51v27H87.24v-5.63a11.81,11.81,0,0,1-2.63,3.46,9.74,9.74,0,0,1-3.76,2.14,14.62,14.62,0,0,1-8.93-.12Zm11.67-7.8a4.9,4.9,0,0,0,2.71-2.18,6.55,6.55,0,0,0,.94-3.38v-3H82.58a19.73,19.73,0,0,0-2.74.19,12.55,12.55,0,0,0-2.7.67,5,5,0,0,0-2.22,1.62,4,4,0,0,0-.9,2.55,3.58,3.58,0,0,0,1,2.44,4.38,4.38,0,0,0,2.33,1.39,12.41,12.41,0,0,0,2.7.3A11,11,0,0,0,83.59,391.61Z" transform="translate(-24.06 -69.38)"/><path class="cls-1" d="M107.51,359.77h8.86v8.56a22.36,22.36,0,0,1,1.31-3.37,12.79,12.79,0,0,1,2-3,7.76,7.76,0,0,1,2.93-2.06,9,9,0,0,1,3.52-.72,10.14,10.14,0,0,1,4.1.87,7.09,7.09,0,0,1,3.19,2.7,10.56,10.56,0,0,1,1.57,3.94,24,24,0,0,1,.38,4.21H126.5a5,5,0,0,0-.41-2,2.57,2.57,0,0,0-1.39-1.36,5.26,5.26,0,0,0-2-.41,4.89,4.89,0,0,0-2.7.83,5.6,5.6,0,0,0-2,2.1,12.91,12.91,0,0,0-1,2.66,14.38,14.38,0,0,0-.49,2.86c-.08,1-.11,1.94-.11,2.89v21.09h-8.86Z" transform="translate(-24.06 -69.38)"/><path class="cls-1" d="M155.74,399.45a8.43,8.43,0,0,1-3.45-2.33,12.76,12.76,0,0,1-2.29-3.49v5.93h-8.86V344.38H150v21.33a11.84,11.84,0,0,1,2.29-3.53,8.64,8.64,0,0,1,3.45-2.29,12,12,0,0,1,4.09-.72,13.21,13.21,0,0,1,4.4.75,8.78,8.78,0,0,1,3.64,2.44,14.15,14.15,0,0,1,2.4,3.76,16.1,16.1,0,0,1,1.2,4.24,32.42,32.42,0,0,1,.3,4.43v9.76a32.6,32.6,0,0,1-.3,4.39,16.06,16.06,0,0,1-1.2,4.28,13.48,13.48,0,0,1-2.4,3.72,9.18,9.18,0,0,1-3.64,2.44,12.76,12.76,0,0,1-4.4.79A12,12,0,0,1,155.74,399.45Zm4.17-8.26a5.14,5.14,0,0,0,2.36-2.85,11.34,11.34,0,0,0,.64-3.79v-9.76a11.39,11.39,0,0,0-.64-3.79,5.14,5.14,0,0,0-2.36-2.85,7.12,7.12,0,0,0-3.68-1,6.83,6.83,0,0,0-2.74.57,4.67,4.67,0,0,0-2.1,1.72A7.22,7.22,0,0,0,150.3,372a13.38,13.38,0,0,0-.3,2.82v9.76a12.8,12.8,0,0,0,.3,2.78,7.54,7.54,0,0,0,1.09,2.55,4.57,4.57,0,0,0,2.1,1.76,6.83,6.83,0,0,0,2.74.57A7.12,7.12,0,0,0,159.91,391.19Z" transform="translate(-24.06 -69.38)"/><path class="cls-1" d="M188.74,399.6a14,14,0,0,1-4.62-2,12,12,0,0,1-3.53-3.53,14.3,14.3,0,0,1-2-4.62,22.57,22.57,0,0,1-.56-4.95v-9.76a22.39,22.39,0,0,1,.56-5,14.37,14.37,0,0,1,2-4.58,12.38,12.38,0,0,1,3.53-3.57,13.25,13.25,0,0,1,4.62-1.95,23.8,23.8,0,0,1,4.95-.53,24.2,24.2,0,0,1,5,.53,12.75,12.75,0,0,1,4.58,1.95,12.37,12.37,0,0,1,3.49,3.57,14.17,14.17,0,0,1,2,4.58,22.39,22.39,0,0,1,.56,5v9.76a22.57,22.57,0,0,1-.56,4.95,14.1,14.1,0,0,1-2,4.62,12,12,0,0,1-3.49,3.53,13.5,13.5,0,0,1-4.58,2,22.36,22.36,0,0,1-5,.57A22,22,0,0,1,188.74,399.6Zm8.63-8.41a5.33,5.33,0,0,0,2.4-2.85,10.9,10.9,0,0,0,.68-3.79v-9.76a11.25,11.25,0,0,0-.68-3.83,5.19,5.19,0,0,0-2.4-2.85,7.4,7.4,0,0,0-7.36,0,5.19,5.19,0,0,0-2.4,2.85,11.24,11.24,0,0,0-.67,3.83v9.76a10.89,10.89,0,0,0,.67,3.79,5.33,5.33,0,0,0,2.4,2.85,7.15,7.15,0,0,0,7.36,0Z" transform="translate(-24.06 -69.38)"/><path class="cls-1" d="M216.22,344.38h9.23l13.66,42-.9-6.61q-.45-3.3-.63-6.64t-.19-6.64V344.38h8.86v55.18H237l-13.66-42,.9,6.6q.45,3.32.64,6.61c.12,2.2.19,4.43.19,6.68v22.07h-8.86Z" transform="translate(-24.06 -69.38)"/><path class="cls-1" d="M263.93,399.6a14,14,0,0,1-4.66-2,12.46,12.46,0,0,1-3.56-3.49,13.09,13.09,0,0,1-2-4.58,22.36,22.36,0,0,1-.57-5v-9.76a21.82,21.82,0,0,1,.57-5,13.94,13.94,0,0,1,1.95-4.58,12.13,12.13,0,0,1,3.53-3.57,13.12,13.12,0,0,1,4.61-1.95,23.8,23.8,0,0,1,10,0,12.83,12.83,0,0,1,4.58,1.95,12.5,12.5,0,0,1,3.49,3.57,14.15,14.15,0,0,1,1.95,4.58,21.81,21.81,0,0,1,.56,5v8.86H262v.9a10.61,10.61,0,0,0,.72,3.83,5.32,5.32,0,0,0,2.47,2.85,7.61,7.61,0,0,0,3.72,1,12.61,12.61,0,0,0,2.85-.34,5,5,0,0,0,2.48-1.43,3.8,3.8,0,0,0,1.13-2.51h8.85a12.85,12.85,0,0,1-1.42,5.25,11.33,11.33,0,0,1-3.53,4.09,13.94,13.94,0,0,1-4.92,2.26,23.59,23.59,0,0,1-5.44.64A22.47,22.47,0,0,1,263.93,399.6Zm11.6-23.91v-.9a11.25,11.25,0,0,0-.68-3.83,5.19,5.19,0,0,0-2.4-2.85,7.4,7.4,0,0,0-7.36,0,5.19,5.19,0,0,0-2.4,2.85,11.25,11.25,0,0,0-.68,3.83v.9Z" transform="translate(-24.06 -69.38)"/><path class="cls-1" d="M298.46,399.34a9,9,0,0,1-3.53-2.52,12.76,12.76,0,0,1-2.25-3.71,18.75,18.75,0,0,1-1.09-4.21,31.8,31.8,0,0,1-.3-4.35V359.77h8.86v24.78a13,13,0,0,0,.3,2.74,7.07,7.07,0,0,0,1.09,2.55,5,5,0,0,0,2.1,1.77,6.4,6.4,0,0,0,2.67.6,6.26,6.26,0,0,0,2.7-.6,5.29,5.29,0,0,0,2.1-1.77,6.43,6.43,0,0,0,1.09-2.55,14.35,14.35,0,0,0,.26-2.74V359.77h8.86v39.79h-8.86v-5.93a12.86,12.86,0,0,1-2.25,3.46,8.54,8.54,0,0,1-3.42,2.32,11.49,11.49,0,0,1-4.09.76A11.35,11.35,0,0,1,298.46,399.34Z" transform="translate(-24.06 -69.38)"/><path class="cls-1" d="M344.22,399.45a9.72,9.72,0,0,1-4.05-2.4,13,13,0,0,1-2.75-3.9,17.9,17.9,0,0,1-1.38-4.58,30.48,30.48,0,0,1-.38-4.77V367.73h-6.91v-8h6.91V344.38h8.86v15.39H355v8H344.52V383.8a23.32,23.32,0,0,0,.15,2.66,13,13,0,0,0,.56,2.56,5.7,5.7,0,0,0,1.39,2.21,3.19,3.19,0,0,0,2.33,1,3.65,3.65,0,0,0,2-.6,3.94,3.94,0,0,0,1.43-1.62,7.88,7.88,0,0,0,.67-2.06,11.47,11.47,0,0,0,.19-2.1v-.38h8.86v.75a19.08,19.08,0,0,1-.79,5.37,12.26,12.26,0,0,1-2.63,4.73,10.39,10.39,0,0,1-4.43,3,15.74,15.74,0,0,1-5.29.91A15.92,15.92,0,0,1,344.22,399.45Z" transform="translate(-24.06 -69.38)"/><path class="cls-1" d="M370.27,359.77h8.86v8.56a24.71,24.71,0,0,1,1.31-3.37,12.79,12.79,0,0,1,2-3,7.83,7.83,0,0,1,2.93-2.06,9.1,9.1,0,0,1,3.53-.72A10.12,10.12,0,0,1,393,360a7,7,0,0,1,3.19,2.7,10.58,10.58,0,0,1,1.58,3.94,24,24,0,0,1,.37,4.21h-8.86a4.79,4.79,0,0,0-.41-2,2.54,2.54,0,0,0-1.39-1.36,5.21,5.21,0,0,0-2-.41,4.9,4.9,0,0,0-2.71.83,5.6,5.6,0,0,0-2,2.1,12.91,12.91,0,0,0-1,2.66,16,16,0,0,0-.49,2.86c-.07,1-.11,1.94-.11,2.89v21.09h-8.86Z" transform="translate(-24.06 -69.38)"/><path class="cls-1" d="M409.76,399.41a8.64,8.64,0,0,1-3.83-2.51,10.47,10.47,0,0,1-2.25-4.06,16.18,16.18,0,0,1-.68-4.61,14.57,14.57,0,0,1,.83-4.84,9.68,9.68,0,0,1,2.7-4.06,14.27,14.27,0,0,1,4.21-2.63,20.07,20.07,0,0,1,4.76-1.27,35.17,35.17,0,0,1,4.92-.34h4.66v-2.55a6,6,0,0,0-.79-3,4.13,4.13,0,0,0-2.33-1.91,9.4,9.4,0,0,0-3-.53,10.25,10.25,0,0,0-2.89.41,4.6,4.6,0,0,0-2.33,1.62,4.22,4.22,0,0,0-.94,2.63H403.9a12.75,12.75,0,0,1,1.17-5.3,11.15,11.15,0,0,1,3.38-4.31,12.62,12.62,0,0,1,4.95-2.37,24.21,24.21,0,0,1,10-.22,14.8,14.8,0,0,1,4.32,1.5,11.22,11.22,0,0,1,3.53,2.89,10.66,10.66,0,0,1,2.06,4,17.48,17.48,0,0,1,.6,4.51v27h-8.85v-5.63a11.81,11.81,0,0,1-2.63,3.46,9.81,9.81,0,0,1-3.76,2.14,14.62,14.62,0,0,1-8.93-.12Zm11.67-7.8a4.9,4.9,0,0,0,2.71-2.18,6.55,6.55,0,0,0,.94-3.38v-3h-4.66a19.73,19.73,0,0,0-2.74.19,12.41,12.41,0,0,0-2.7.67,5,5,0,0,0-2.22,1.62,4,4,0,0,0-.9,2.55,3.58,3.58,0,0,0,1,2.44,4.34,4.34,0,0,0,2.33,1.39,12.41,12.41,0,0,0,2.7.3A11,11,0,0,0,421.43,391.61Z" transform="translate(-24.06 -69.38)"/><path class="cls-1" d="M443.32,391.61h9.23V352.34h-8.18v-8h17v47.23h8.19v7.95H443.32Z" transform="translate(-24.06 -69.38)"/><path class="cls-2" d="M176.61,101a118.09,118.09,0,0,1,146.77,0" transform="translate(-24.06 -69.38)"/><path class="cls-2" d="M324,285.39a118.09,118.09,0,0,1-148,0" transform="translate(-24.06 -69.38)"/><path class="cls-2" d="M323.38,101l1.07.86" transform="translate(-24.06 -69.38)"/><path class="cls-2" d="M323.7,101.66A101.9,101.9,0,1,1,324,285.31" transform="translate(-24.06 -69.38)"/><path class="cls-2" d="M176.05,285.31a101.89,101.89,0,1,1-.29-183.91" transform="translate(-24.06 -69.38)"/><path class="cls-2" d="M176,101a665,665,0,0,1,6.43,92.46,664.73,664.73,0,0,1-6.35,91.89" transform="translate(-24.06 -69.38)"/><path class="cls-2" d="M324,285.42a667.72,667.72,0,0,1,0-183.88" transform="translate(-24.06 -69.38)"/><line class="cls-3" x1="188.9" y1="103.5" x2="268.21" y2="103.5"/><line class="cls-3" x1="188.9" y1="144.7" x2="268.21" y2="144.7"/></svg>