<?xml version="1.0" encoding="utf-8"?>
<!-- Generator: Adobe Illustrator 25.3.0, SVG Export Plug-In . SVG Version: 6.00 Build 0)  -->
<svg version="1.1" id="图层_1" xmlns="http://www.w3.org/2000/svg" xmlns:xlink="http://www.w3.org/1999/xlink" x="0px" y="0px"
	 viewBox="0 0 1249.5 841.9" style="enable-background:new 0 0 1249.5 841.9;" xml:space="preserve">
<style type="text/css">
	.st0{display:none;fill:#893F3F;stroke:#000000;stroke-miterlimit:10;}
	.st1{display:none;opacity:0.27;}
	.st2{display:none;fill:#BDD7DA;}
	.st3{fill:url(#SVGID_1_);}
	.st4{fill:#E7F4F4;}
	.st5{fill:#C5E5E6;}
	.st6{fill:#D6EDEE;}
	.st7{fill:#E3F2F2;}
	.st8{fill:#F7F7F7;}
	.st9{fill:#D8EDED;}
	.st10{fill:#E8F1F1;}
	.st11{fill:#FEFFFF;}
	.st12{fill:#EDF3F3;}
	.st13{fill:#CCE8E8;}
	.st14{display:none;}
	.st15{display:inline;fill:#E3F0F0;}
	.st16{display:inline;fill:#FFFFFF;}
	.st17{display:inline;fill:#EFEFEF;}
	.st18{display:none;fill:#87B3BB;}
	.st19{display:inline;fill:#F7F7F5;}
	.st20{display:inline;fill:#131313;}
	.st21{display:inline;fill:#040000;}
	.st22{display:inline;fill:#F1F0EA;}
	.st23{display:inline;fill:#C4C2BA;}
	.st24{display:inline;fill:#A5A5A2;}
	.st25{display:inline;fill:#FBFAF9;}
	.st26{display:inline;fill:#E9E9E3;}
	.st27{display:none;fill:url(#SVGID_2_);}
</style>
<rect x="-46.1" y="14.5" class="st0" width="1319.9" height="845.4"/>
<g id="图层_1_1_" class="st1">
	
		<image style="display:inline;overflow:visible;enable-background:new    ;" width="2396" height="1675" xlink:href="D6A4A2A92433269C.png"  transform="matrix(0.5214 0 0 0.5214 0.1729 -37.8111)">
	</image>
</g>
<g id="图层_2_1_">
	<rect y="0" class="st2" width="1249.5" height="718.5"/>
	<g>
		
			<linearGradient id="SVGID_1_" gradientUnits="userSpaceOnUse" x1="257.3937" y1="245.9689" x2="340.0245" y2="659.1224" gradientTransform="matrix(1 0 0 1 0 -6.103516e-05)">
			<stop  offset="0" style="stop-color:#FFFFFF"/>
			<stop  offset="0.3776" style="stop-color:#FEFEFF"/>
			<stop  offset="0.6092" style="stop-color:#F7FBFD"/>
			<stop  offset="0.8013" style="stop-color:#EBF6F8"/>
			<stop  offset="0.971" style="stop-color:#D9EEF2"/>
			<stop  offset="1" style="stop-color:#D5ECF1"/>
		</linearGradient>
		<path class="st3" d="M0,261.1c0,0,159.9-59.4,177.3-65.2c0,0,153.7,110.1,210.2,202.9c0,0,110.2,34.8,124.7,29
			c0,0,117.4,204.4,134.8,216c0,0,40.6,30.4,50.7,55.1L0,707.6V261.1z"/>
		<polygon class="st4" points="177.3,195.9 281.6,455.4 420.8,384.4 		"/>
		<polygon class="st5" points="523.7,427.8 386,490.2 348.3,459 281.6,455.4 420.8,384.4 		"/>
		<polygon class="st6" points="700.6,664.1 523.7,427.8 386,490.2 464.3,664.1 670.2,690.2 709.3,706.2 		"/>
		<polygon class="st7" points="0,285.8 117.8,319.1 0,403.3 		"/>
		<polygon class="st8" points="128,455.4 117.8,319.1 0,403.3 0,599.4 128,583 		"/>
		<polygon class="st9" points="193.2,461.9 128,427.8 117.8,474.2 		"/>
		<polygon class="st10" points="230.9,594.5 117.8,604.7 117.8,474.2 193.2,461.9 		"/>
		<polygon class="st11" points="0,562 116.4,539.5 323.7,598.9 474.5,584.4 594.8,659.8 683.2,678.6 703.5,706.2 0,706.2 		"/>
		<polygon class="st12" points="172.9,622.8 116.4,539.5 323.7,598.9 		"/>
		<polygon class="st13" points="594.8,659.8 172.9,622.8 323.7,598.9 474.5,584.4 		"/>
	</g>
	<g class="st14">
		<polygon class="st15" points="1237,707.6 1237,685.1 1192,662.7 1180.8,670.8 1144.6,678.9 1159.6,707.6 		"/>
		<polygon class="st16" points="801.1,707.6 811.1,675.2 848.5,670.2 927.2,633.9 1018.4,681.4 1114.6,687.6 1144.6,678.9 
			1188.3,691.4 1212,707.6 		"/>
		<polygon class="st17" points="848.5,670.2 936,692.6 1018.4,681.4 		"/>
	</g>
	<rect y="706.2" class="st18" width="1249.5" height="135.7"/>
	<g class="st14">
		<path class="st19" d="M1123.4,678.8c-1.2-0.9-3.5-2.7-5.6-3.2s-6.7-3.5-11.7-0.9c0,0-0.8-2.6-2.6-2.8s-4.7-0.3-6.2,1.7
			c-1.4,2-0.3,7.5-0.3,7.5s-3.2,0.4-3.9,4.9c-0.8,4.5,0.3,7.1,3.7,8.4s9.5,0.4,10.1,0.4c0.5,1,6.7,1,9.6,0.9
			c0.6,0.5,9.8,1.5,11.6-0.5c1.8-2,0.3-6.6,0.3-6.6s2-1.5,1.8-4.8s-1.2-3.6-2.2-3.4C1126.6,680,1124.6,679.6,1123.4,678.8z"/>
		<path class="st20" d="M1120.3,693.4c-0.9,0.3-1.7,1.9-1.9,2.6s6.3,0.8,7,0.1s1.7-2.4,0.4-6.5c-1.2-4.2-5.9-0.3-6.5,0.9
			S1120.3,693.4,1120.3,693.4z"/>
		<path class="st21" d="M1113.7,681c-0.7,0.4-1.7,0.9-1.5,1.4c0.3,0.5,2.5,1.6,3.2,0S1113.7,681,1113.7,681z"/>
		<path class="st21" d="M1125.5,682.7c-0.6,0.4-0.7,1.5,0,1.8s0.9,0.7,1.2,0.3s0.5-0.7,0.3-1.2S1126.2,682.2,1125.5,682.7z"/>
		<path class="st22" d="M1105.7,676.7c-0.3-1.9-3.9-4.8-6.2-3.1s-0.9,8.2,0,8.6C1100.4,682.5,1105.9,678,1105.7,676.7z"/>
		<path class="st23" d="M1103.7,677.5c-0.5-1.4-2.2-2-2.4-2s-0.7,3.7-0.4,4.5S1104.1,678.4,1103.7,677.5z"/>
		<path class="st24" d="M1121.9,685.2c-1,0.3-2.8,4.6-2.6,5.2s2.5-1.6,3.1-1.5s2.9,1.4,3.4,0.6S1123,685.2,1121.9,685.2z"/>
		<path class="st25" d="M984.9,653.8c1.2,3.5-13.7,5.9-17.2,11.8c-3.5,5.9-1.5,20.8-0.8,22.3s20.6,5.5,23.3,4.2s-0.6-5.3-3.4-5.9
			s-4.2-2-3.5-4.1c0.8-2.1,4.4-0.7,5.7-1.1s0.8-2,3.2-2.5c2.4-0.6,26-4.2,27.4-6.8s-21.2-22.3-21.2-22.3L984.9,653.8z"/>
		<path class="st19" d="M1022.7,676c-6.2,2.3-8,5.7-9,6.1c-1,0.4-5.6-2.9-6.5-3.1c-0.8-0.2-7.7,0.1-9.5,2s-2.7,2.7-3.1,4.2
			c-0.4,1.5-1.3,1.3-2.7,2.4s1.7,3.8,5.6,2.9s3.5-1.2,6-0.7c2.5,0.6,14.3,8,43.7-2.2c18.1-6.3,10.2-7.7-1-14.6
			C1039.7,669,1022.7,676,1022.7,676z"/>
		<path class="st26" d="M991.9,687.7c-1.9,2.4,11.8-4,12.3-4.5s5.3-4.2,3-4.1s-5.6-0.5-7.8,0.6s-4.3,3.6-4.8,5.5
			S993,686.2,991.9,687.7z"/>
	</g>
</g>
<linearGradient id="SVGID_2_" gradientUnits="userSpaceOnUse" x1="624.75" y1="143.6075" x2="624.75" y2="-67.9139" gradientTransform="matrix(1 0 0 -1 0 841.8898)">
	<stop  offset="0" style="stop-color:#0081AA"/>
	<stop  offset="1" style="stop-color:#00516A"/>
</linearGradient>
<polygon class="st27" points="0,699.8 134.2,689 420.8,699.8 723.7,689 1040,699.8 1249.5,684.3 1249.5,841.9 0,841.9 "/>
</svg>
