<svg id="图层_1" data-name="图层 1" xmlns="http://www.w3.org/2000/svg" viewBox="0 0 1198.23 854.54"><defs><style>.cls-1{isolation:isolate;}.cls-2{fill:none;stroke:#b7b7b7;}</style></defs><g id="trsvg119" class="cls-1"><g class="cls-1"><path d="M165.8,906.09h-.07l-3.66,2.15-.41-1.3,4.25-2.52h1.49v22.41h-1.6Z" transform="translate(-88.41 -72.67)"/><path d="M175.88,921.25c0-2.89,1.78-5,4.69-6.26v-.12c-2.71-1.17-3.79-3.14-3.79-5.08,0-3.37,2.76-5.75,6.38-5.75s5.95,2.51,5.95,5.36c0,1.89-.89,4-3.95,5.41v.13c3.16,1.24,4.74,3.34,4.74,5.91,0,3.82-3.28,6.36-7,6.36C178.84,927.21,175.88,924.67,175.88,921.25Zm12.34-.13c0-3.17-2.16-4.58-5.78-5.62-3.17.91-4.86,3-4.86,5.42-.13,2.65,1.87,4.92,5.28,4.92S188.22,923.85,188.22,921.12Zm-9.83-11.57c0,2.7,1.9,4.05,4.93,4.82,2.37-.83,4.11-2.37,4.11-4.83,0-2-1.24-4.16-4.45-4.16C180,905.38,178.39,907.32,178.39,909.55Z" transform="translate(-88.41 -72.67)"/><path d="M192.7,921.25c0-2.89,1.78-5,4.69-6.26v-.12c-2.71-1.17-3.79-3.14-3.79-5.08,0-3.37,2.76-5.75,6.38-5.75s5.95,2.51,5.95,5.36c0,1.89-.89,4-3.95,5.41v.13c3.16,1.24,4.74,3.34,4.74,5.91,0,3.82-3.28,6.36-7,6.36C195.66,927.21,192.7,924.67,192.7,921.25Zm12.34-.13c0-3.17-2.15-4.58-5.78-5.62-3.16.91-4.86,3-4.86,5.42-.13,2.65,1.87,4.92,5.28,4.92S205,923.85,205,921.12Zm-9.83-11.57c0,2.7,1.9,4.05,4.94,4.82,2.37-.83,4.1-2.37,4.1-4.83,0-2-1.24-4.16-4.45-4.16C196.84,905.38,195.21,907.32,195.21,909.55Z" transform="translate(-88.41 -72.67)"/><path d="M223.62,915.31c0,8-2.87,11.9-7.35,11.9-3.5,0-6.73-3.43-6.84-11.48S213,904,216.79,904,223.62,907.57,223.62,915.31Zm-12.49.44c0,6.27,2.14,10.09,5.35,10.09,3.74,0,5.44-4.26,5.44-10.35,0-5.87-1.59-10.09-5.39-10.09C213.45,905.4,211.13,909.15,211.13,915.75Z" transform="translate(-88.41 -72.67)"/></g></g><g id="trsvg120" class="cls-1"><g class="cls-1"><path d="M317.66,906.09h-.07l-3.66,2.15-.41-1.3,4.25-2.52h1.49v22.41h-1.6Z" transform="translate(-88.41 -72.67)"/><path d="M329.81,925.7a11.54,11.54,0,0,0,2.52-.18,8.46,8.46,0,0,0,4.89-2.63,12.64,12.64,0,0,0,3-7.09l-.09,0a7.11,7.11,0,0,1-5.79,2.9c-4.17,0-6.39-3.29-6.39-6.8,0-4.11,2.81-7.88,7.18-7.88,3.84,0,6.75,3.28,6.75,9.35,0,5.07-1.78,8.53-3.84,10.62a10.59,10.59,0,0,1-5.24,2.9,14.78,14.78,0,0,1-3,.3Zm-.19-13.87c0,3.32,2.07,5.47,5,5.47a6.14,6.14,0,0,0,5.33-2.9,2.1,2.1,0,0,0,.28-1c0-4.73-1.76-8-5.41-8C331.76,905.43,329.62,908.13,329.62,911.83Z" transform="translate(-88.41 -72.67)"/><path d="M358.66,915.31c0,8-2.87,11.9-7.35,11.9-3.5,0-6.73-3.43-6.84-11.48S348,904,351.83,904,358.66,907.57,358.66,915.31Zm-12.49.44c0,6.27,2.14,10.09,5.35,10.09,3.74,0,5.44-4.26,5.44-10.35,0-5.87-1.59-10.09-5.39-10.09C348.49,905.4,346.17,909.15,346.17,915.75Z" transform="translate(-88.41 -72.67)"/><path d="M375.48,915.31c0,8-2.87,11.9-7.35,11.9-3.5,0-6.73-3.43-6.83-11.48S364.86,904,368.65,904,375.48,907.57,375.48,915.31Zm-12.49.44c0,6.27,2.14,10.09,5.35,10.09,3.74,0,5.44-4.26,5.44-10.35,0-5.87-1.59-10.09-5.39-10.09C365.31,905.4,363,909.15,363,915.75Z" transform="translate(-88.41 -72.67)"/></g></g><g id="trsvg121" class="cls-1"><g class="cls-1"><path d="M469.52,906.09h-.07l-3.66,2.15-.41-1.3,4.25-2.52h1.49v22.41h-1.6Z" transform="translate(-88.41 -72.67)"/><path d="M481.67,925.7a11.54,11.54,0,0,0,2.52-.18,8.46,8.46,0,0,0,4.89-2.63,12.64,12.64,0,0,0,3-7.09l-.09,0a7.11,7.11,0,0,1-5.79,2.9c-4.17,0-6.39-3.29-6.39-6.8,0-4.11,2.81-7.88,7.18-7.88,3.84,0,6.75,3.28,6.75,9.35,0,5.07-1.78,8.53-3.84,10.62a10.59,10.59,0,0,1-5.24,2.9,14.78,14.78,0,0,1-3,.3Zm-.19-13.87c0,3.32,2.07,5.47,5,5.47a6.14,6.14,0,0,0,5.33-2.9,2.1,2.1,0,0,0,.28-1c0-4.73-1.76-8-5.41-8C483.62,905.43,481.48,908.13,481.48,911.83Z" transform="translate(-88.41 -72.67)"/><path d="M496.61,926.83v-1l2.07-2.13c6.22-6.1,9-9.26,9-13.1,0-2.56-1.08-5.08-4.88-5.08a7.36,7.36,0,0,0-4.74,1.93l-.66-1.12a8.45,8.45,0,0,1,5.73-2.26,5.89,5.89,0,0,1,6.22,6.18c0,4.41-3.19,7.95-8.8,13.5l-1.58,1.64v.07h11v1.4Z" transform="translate(-88.41 -72.67)"/><path d="M527.34,915.31c0,8-2.87,11.9-7.35,11.9-3.5,0-6.73-3.43-6.83-11.48S516.72,904,520.51,904,527.34,907.57,527.34,915.31Zm-12.49.44c0,6.27,2.14,10.09,5.35,10.09,3.74,0,5.44-4.26,5.44-10.35,0-5.87-1.59-10.09-5.39-10.09C517.17,905.4,514.85,909.15,514.85,915.75Z" transform="translate(-88.41 -72.67)"/></g></g><g id="trsvg122" class="cls-1"><g class="cls-1"><path d="M621.38,906.09h-.07l-3.66,2.15-.41-1.3,4.25-2.52H623v22.41h-1.6Z" transform="translate(-88.41 -72.67)"/><path d="M633.53,925.7a11.54,11.54,0,0,0,2.52-.18,8.46,8.46,0,0,0,4.89-2.63,12.64,12.64,0,0,0,3-7.09l-.09,0a7.11,7.11,0,0,1-5.79,2.9c-4.17,0-6.39-3.29-6.39-6.8,0-4.11,2.81-7.88,7.18-7.88,3.84,0,6.75,3.28,6.75,9.35,0,5.07-1.78,8.53-3.84,10.62a10.59,10.59,0,0,1-5.24,2.9,14.78,14.78,0,0,1-3,.3Zm-.19-13.87c0,3.32,2.07,5.47,5,5.47a6.14,6.14,0,0,0,5.33-2.9,2.1,2.1,0,0,0,.28-1c0-4.73-1.76-8-5.41-8C635.48,905.43,633.34,908.13,633.34,911.83Z" transform="translate(-88.41 -72.67)"/><path d="M657.92,926.83v-6.59H647.23v-1.1l10.92-14.72h1.35v14.44h3.43v1.38H659.5v6.59Zm0-8V909.8c0-1.06,0-2.1.1-3.1l-.11,0c-.69,1.26-1.2,2-1.74,2.83l-7,9.3v.06Z" transform="translate(-88.41 -72.67)"/><path d="M679.2,915.31c0,8-2.87,11.9-7.35,11.9-3.5,0-6.73-3.43-6.83-11.48S668.58,904,672.37,904,679.2,907.57,679.2,915.31Zm-12.49.44c0,6.27,2.14,10.09,5.35,10.09,3.74,0,5.44-4.26,5.44-10.35,0-5.87-1.59-10.09-5.39-10.09C669,905.4,666.71,909.15,666.71,915.75Z" transform="translate(-88.41 -72.67)"/></g></g><g id="trsvg123" class="cls-1"><g class="cls-1"><path d="M773.24,906.09h-.07l-3.66,2.15-.41-1.3,4.25-2.52h1.49v22.41h-1.6Z" transform="translate(-88.41 -72.67)"/><path d="M785.39,925.7a11.54,11.54,0,0,0,2.52-.18,8.46,8.46,0,0,0,4.89-2.63,12.64,12.64,0,0,0,3-7.09l-.09,0a7.11,7.11,0,0,1-5.79,2.9c-4.17,0-6.39-3.29-6.39-6.8,0-4.11,2.81-7.88,7.18-7.88,3.84,0,6.75,3.28,6.75,9.35,0,5.07-1.78,8.53-3.84,10.62a10.59,10.59,0,0,1-5.24,2.9,14.78,14.78,0,0,1-3,.3Zm-.19-13.87c0,3.32,2.07,5.47,5,5.47a6.14,6.14,0,0,0,5.33-2.9,2,2,0,0,0,.28-1c0-4.73-1.76-8-5.41-8C787.34,905.43,785.2,908.13,785.2,911.83Z" transform="translate(-88.41 -72.67)"/><path d="M812.21,905.55a12.16,12.16,0,0,0-2.44.23c-4.82,1-7.6,5.17-8,9.57h.07a6.81,6.81,0,0,1,5.8-3.13c4.13,0,6.68,3,6.68,7.2,0,3.9-2.43,7.79-7,7.79-4,0-7.3-3.29-7.3-9.4a14.56,14.56,0,0,1,3.68-10.18A11.73,11.73,0,0,1,810,904.3a12.13,12.13,0,0,1,2.24-.26Zm.37,14c0-3.91-2.3-5.92-5.39-5.92a6,6,0,0,0-5.15,3.23,2.86,2.86,0,0,0-.38,1.32c0,4.51,2.05,7.64,5.73,7.64C810.46,925.82,812.58,923.33,812.58,919.55Z" transform="translate(-88.41 -72.67)"/><path d="M831.06,915.31c0,8-2.87,11.9-7.35,11.9-3.5,0-6.73-3.43-6.83-11.48S820.44,904,824.23,904,831.06,907.57,831.06,915.31Zm-12.49.44c0,6.27,2.14,10.09,5.35,10.09,3.75,0,5.44-4.26,5.44-10.35,0-5.87-1.59-10.09-5.39-10.09C820.89,905.4,818.57,909.15,818.57,915.75Z" transform="translate(-88.41 -72.67)"/></g></g><g id="trsvg124" class="cls-1"><g class="cls-1"><path d="M925.1,906.09H925l-3.66,2.15-.41-1.3,4.25-2.52h1.49v22.41h-1.6Z" transform="translate(-88.41 -72.67)"/><path d="M937.25,925.7a11.66,11.66,0,0,0,2.53-.18,8.46,8.46,0,0,0,4.88-2.63,12.64,12.64,0,0,0,3-7.09l-.1,0a7.11,7.11,0,0,1-5.79,2.9c-4.17,0-6.38-3.29-6.38-6.8,0-4.11,2.8-7.88,7.17-7.88,3.84,0,6.75,3.28,6.75,9.35,0,5.07-1.77,8.53-3.83,10.62a10.61,10.61,0,0,1-5.25,2.9,14.78,14.78,0,0,1-3,.3Zm-.19-13.87c0,3.32,2.07,5.47,5,5.47a6.14,6.14,0,0,0,5.33-2.9,2,2,0,0,0,.28-1c0-4.73-1.75-8-5.41-8C939.21,905.43,937.06,908.13,937.06,911.83Z" transform="translate(-88.41 -72.67)"/><path d="M952,921.25c0-2.89,1.79-5,4.69-6.26v-.12c-2.7-1.17-3.79-3.14-3.79-5.08,0-3.37,2.77-5.75,6.39-5.75s5.94,2.51,5.94,5.36c0,1.89-.89,4-3.94,5.41v.13c3.15,1.24,4.73,3.34,4.73,5.91,0,3.82-3.28,6.36-7,6.36C955,927.21,952,924.67,952,921.25Zm12.34-.13c0-3.17-2.15-4.58-5.78-5.62-3.16.91-4.86,3-4.86,5.42-.13,2.65,1.87,4.92,5.28,4.92S964.34,923.85,964.34,921.12Zm-9.83-11.57c0,2.7,1.91,4.05,4.94,4.82,2.37-.83,4.1-2.37,4.1-4.83,0-2-1.23-4.16-4.45-4.16C956.15,905.38,954.51,907.32,954.51,909.55Z" transform="translate(-88.41 -72.67)"/><path d="M982.92,915.31c0,8-2.87,11.9-7.35,11.9-3.5,0-6.73-3.43-6.83-11.48S972.31,904,976.09,904C980,904,982.92,907.57,982.92,915.31Zm-12.48.44c0,6.27,2.13,10.09,5.35,10.09,3.74,0,5.43-4.26,5.43-10.35,0-5.87-1.59-10.09-5.39-10.09C972.75,905.4,970.44,909.15,970.44,915.75Z" transform="translate(-88.41 -72.67)"/></g></g><g id="trsvg125" class="cls-1"><g class="cls-1"><path d="M1070.41,926.83v-1l2.07-2.13c6.22-6.1,9-9.26,9-13.1,0-2.56-1.08-5.08-4.88-5.08a7.36,7.36,0,0,0-4.74,1.93l-.66-1.12a8.45,8.45,0,0,1,5.73-2.26,5.89,5.89,0,0,1,6.22,6.18c0,4.41-3.19,7.95-8.8,13.5l-1.58,1.64v.07h11v1.4Z" transform="translate(-88.41 -72.67)"/><path d="M1101.14,915.31c0,8-2.87,11.9-7.35,11.9-3.5,0-6.73-3.43-6.83-11.48s3.56-11.69,7.35-11.69C1098.25,904,1101.14,907.57,1101.14,915.31Zm-12.49.44c0,6.27,2.14,10.09,5.36,10.09,3.74,0,5.43-4.26,5.43-10.35,0-5.87-1.59-10.09-5.39-10.09C1091,905.4,1088.65,909.15,1088.65,915.75Z" transform="translate(-88.41 -72.67)"/><path d="M1118,915.31c0,8-2.87,11.9-7.35,11.9-3.5,0-6.73-3.43-6.83-11.48s3.56-11.69,7.35-11.69S1118,907.57,1118,915.31Zm-12.49.44c0,6.27,2.14,10.09,5.36,10.09,3.74,0,5.43-4.26,5.43-10.35,0-5.87-1.59-10.09-5.39-10.09C1107.79,905.4,1105.47,909.15,1105.47,915.75Z" transform="translate(-88.41 -72.67)"/><path d="M1134.78,915.31c0,8-2.87,11.9-7.35,11.9-3.5,0-6.73-3.43-6.83-11.48S1124.17,904,1128,904C1131.89,904,1134.78,907.57,1134.78,915.31Zm-12.48.44c0,6.27,2.13,10.09,5.35,10.09,3.74,0,5.43-4.26,5.43-10.35,0-5.87-1.59-10.09-5.39-10.09C1124.61,905.4,1122.3,909.15,1122.3,915.75Z" transform="translate(-88.41 -72.67)"/></g></g><g id="trsvg126" class="cls-1"><g class="cls-1"><path d="M1222.27,926.83v-1l2.07-2.13c6.22-6.1,9-9.26,9-13.1,0-2.56-1.08-5.08-4.88-5.08a7.36,7.36,0,0,0-4.74,1.93l-.66-1.12a8.45,8.45,0,0,1,5.73-2.26,5.88,5.88,0,0,1,6.22,6.18c0,4.41-3.18,7.95-8.8,13.5l-1.58,1.64v.07h11v1.4Z" transform="translate(-88.41 -72.67)"/><path d="M1253,915.31c0,8-2.87,11.9-7.35,11.9-3.5,0-6.73-3.43-6.83-11.48s3.56-11.69,7.35-11.69S1253,907.57,1253,915.31Zm-12.49.44c0,6.27,2.14,10.09,5.36,10.09,3.74,0,5.43-4.26,5.43-10.35,0-5.87-1.59-10.09-5.39-10.09C1242.83,905.4,1240.51,909.15,1240.51,915.75Z" transform="translate(-88.41 -72.67)"/><path d="M1255.91,926.83v-1l2.07-2.13c6.22-6.1,9-9.26,9-13.1,0-2.56-1.08-5.08-4.87-5.08a7.39,7.39,0,0,0-4.75,1.93l-.66-1.12a8.47,8.47,0,0,1,5.73-2.26,5.89,5.89,0,0,1,6.23,6.18c0,4.41-3.19,7.95-8.8,13.5l-1.59,1.64v.07h11v1.4Z" transform="translate(-88.41 -72.67)"/><path d="M1286.64,915.31c0,8-2.87,11.9-7.35,11.9-3.5,0-6.73-3.43-6.83-11.48S1276,904,1279.81,904C1283.75,904,1286.64,907.57,1286.64,915.31Zm-12.48.44c0,6.27,2.13,10.09,5.35,10.09,3.74,0,5.44-4.26,5.44-10.35,0-5.87-1.6-10.09-5.4-10.09C1276.47,905.4,1274.16,909.15,1274.16,915.75Z" transform="translate(-88.41 -72.67)"/></g></g><line class="cls-2" x1="74.25" y1="800.5" x2="1194.25" y2="800.5"/><line class="cls-2" x1="74.25" y1="750.5" x2="1194.25" y2="750.5"/><g id="trsvg147" class="cls-1"><g class="cls-1"><path d="M96.92,823.21v1.5H88.41v-1.5Z" transform="translate(-88.41 -72.67)"/><path d="M114.1,821.84c0,8.34-3,12.35-7.64,12.35-3.63,0-7-3.55-7.1-11.92s3.71-12.13,7.64-12.13C111.09,810.14,114.1,813.8,114.1,821.84Zm-13,.46c0,6.5,2.22,10.48,5.56,10.48,3.88,0,5.64-4.43,5.64-10.75,0-6.1-1.65-10.48-5.6-10.48C103.54,811.55,101.13,815.44,101.13,822.3Z" transform="translate(-88.41 -72.67)"/><path d="M117.4,832.6a1.5,1.5,0,0,1,1.47-1.63,1.62,1.62,0,1,1-1.47,1.63Z" transform="translate(-88.41 -72.67)"/><path d="M133.17,833.8V827H122.06v-1.14l11.34-15.29h1.41v15h3.56V827h-3.56v6.84Zm0-8.27v-9.42c0-1.1,0-2.17.1-3.22l-.12,0c-.72,1.3-1.24,2.09-1.8,2.93l-7.26,9.66v.07Z" transform="translate(-88.41 -72.67)"/></g></g><line class="cls-2" x1="74.25" y1="700.5" x2="1194.25" y2="700.5"/><line class="cls-2" x1="74.25" y1="650.5" x2="1194.25" y2="650.5"/><g id="trsvg149" class="cls-1"><g class="cls-1"><path d="M96.92,724v1.49H88.41V724Z" transform="translate(-88.41 -72.67)"/><path d="M114.1,722.64c0,8.34-3,12.35-7.64,12.35-3.63,0-7-3.56-7.1-11.92s3.71-12.14,7.64-12.14C111.09,710.93,114.1,714.59,114.1,722.64Zm-13,.45c0,6.51,2.22,10.48,5.56,10.48,3.88,0,5.64-4.43,5.64-10.75,0-6.1-1.65-10.48-5.6-10.48C103.54,712.34,101.13,716.24,101.13,723.09Z" transform="translate(-88.41 -72.67)"/><path d="M117.4,733.39a1.5,1.5,0,0,1,1.47-1.63,1.47,1.47,0,0,1,1.44,1.63,1.5,1.5,0,0,1-1.47,1.6A1.48,1.48,0,0,1,117.4,733.39Z" transform="translate(-88.41 -72.67)"/><path d="M123.35,734.59v-1.06l2.15-2.21c6.46-6.34,9.31-9.62,9.31-13.62,0-2.65-1.13-5.27-5.07-5.27a7.69,7.69,0,0,0-4.93,2l-.68-1.17a8.81,8.81,0,0,1,6-2.34c4.83,0,6.46,3.66,6.46,6.42,0,4.58-3.31,8.26-9.14,14l-1.64,1.71v.07h11.43v1.45Z" transform="translate(-88.41 -72.67)"/></g></g><line class="cls-2" x1="74.25" y1="600.5" x2="1194.25" y2="600.5"/><line class="cls-2" x1="74.25" y1="550.5" x2="1194.25" y2="550.5"/><g id="trsvg150" class="cls-1"><g class="cls-1"><path d="M137.8,623.43c0,8.34-3,12.35-7.64,12.35-3.63,0-7-3.55-7.1-11.92s3.71-12.14,7.64-12.14C134.79,611.72,137.8,615.38,137.8,623.43Zm-13,.46c0,6.5,2.22,10.48,5.56,10.48,3.88,0,5.64-4.43,5.64-10.75,0-6.11-1.65-10.48-5.6-10.48C127.24,613.14,124.83,617,124.83,623.89Z" transform="translate(-88.41 -72.67)"/></g></g><line class="cls-2" x1="74.25" y1="500.5" x2="1194.25" y2="500.5"/><line class="cls-2" x1="74.25" y1="450.5" x2="1194.25" y2="450.5"/><g id="trsvg152" class="cls-1"><g class="cls-1"><path d="M114.1,524.22c0,8.34-3,12.35-7.64,12.35-3.63,0-7-3.55-7.1-11.92s3.71-12.13,7.64-12.13C111.09,512.52,114.1,516.18,114.1,524.22Zm-13,.46c0,6.5,2.22,10.48,5.56,10.48,3.88,0,5.64-4.43,5.64-10.75,0-6.1-1.65-10.48-5.6-10.48C103.54,513.93,101.13,517.82,101.13,524.68Z" transform="translate(-88.41 -72.67)"/><path d="M117.4,535a1.5,1.5,0,0,1,1.47-1.63A1.62,1.62,0,1,1,117.4,535Z" transform="translate(-88.41 -72.67)"/><path d="M123.35,536.18v-1.07l2.15-2.21c6.46-6.33,9.31-9.62,9.31-13.61,0-2.66-1.13-5.27-5.07-5.27a7.69,7.69,0,0,0-4.93,2l-.68-1.17a8.76,8.76,0,0,1,6-2.34,6.11,6.11,0,0,1,6.46,6.41c0,4.59-3.31,8.26-9.14,14l-1.64,1.71v.07h11.43v1.45Z" transform="translate(-88.41 -72.67)"/></g></g><line class="cls-2" x1="74.25" y1="400.5" x2="1194.25" y2="400.5"/><line class="cls-2" x1="74.25" y1="350.5" x2="1194.25" y2="350.5"/><g id="trsvg154" class="cls-1"><g class="cls-1"><path d="M114.1,425c0,8.34-3,12.35-7.64,12.35-3.63,0-7-3.56-7.1-11.92s3.71-12.14,7.64-12.14C111.09,413.31,114.1,417,114.1,425Zm-13,.45c0,6.51,2.22,10.48,5.56,10.48,3.88,0,5.64-4.43,5.64-10.75,0-6.1-1.65-10.48-5.6-10.48C103.54,414.72,101.13,418.62,101.13,425.47Z" transform="translate(-88.41 -72.67)"/><path d="M117.4,435.77a1.5,1.5,0,0,1,1.47-1.63,1.47,1.47,0,0,1,1.44,1.63,1.5,1.5,0,0,1-1.47,1.6A1.48,1.48,0,0,1,117.4,435.77Z" transform="translate(-88.41 -72.67)"/><path d="M133.17,437v-6.83H122.06V429L133.4,413.7h1.41v15h3.56v1.44h-3.56V437Zm0-8.27v-9.41c0-1.1,0-2.18.1-3.22l-.12,0c-.72,1.31-1.24,2.09-1.8,2.94l-7.26,9.65v.07Z" transform="translate(-88.41 -72.67)"/></g></g><line class="cls-2" x1="74.25" y1="300.5" x2="1194.25" y2="300.5"/><line class="cls-2" x1="74.25" y1="250.5" x2="1194.25" y2="250.5"/><g id="trsvg156" class="cls-1"><g class="cls-1"><path d="M114.1,325.81c0,8.34-3,12.35-7.64,12.35-3.63,0-7-3.55-7.1-11.92s3.71-12.14,7.64-12.14C111.09,314.1,114.1,317.76,114.1,325.81Zm-13,.46c0,6.5,2.22,10.48,5.56,10.48,3.88,0,5.64-4.43,5.64-10.75,0-6.11-1.65-10.48-5.6-10.48C103.54,315.52,101.13,319.41,101.13,326.27Z" transform="translate(-88.41 -72.67)"/><path d="M117.4,336.57a1.5,1.5,0,0,1,1.47-1.63,1.62,1.62,0,1,1-1.47,1.63Z" transform="translate(-88.41 -72.67)"/><path d="M135.69,315.67a13.26,13.26,0,0,0-2.54.24c-5,1-7.89,5.37-8.35,9.93h.07a7.13,7.13,0,0,1,6-3.24c4.29,0,6.94,3.14,6.94,7.47,0,4.05-2.52,8.09-7.25,8.09-4.19,0-7.58-3.41-7.58-9.76a15.07,15.07,0,0,1,3.82-10.56,12.11,12.11,0,0,1,6.51-3.47,12.43,12.43,0,0,1,2.33-.27Zm.39,14.54c0-4.06-2.39-6.15-5.61-6.15a6.23,6.23,0,0,0-5.35,3.35,3.12,3.12,0,0,0-.39,1.38c0,4.68,2.13,7.93,6,7.93C133.87,336.72,136.08,334.13,136.08,330.21Z" transform="translate(-88.41 -72.67)"/></g></g><line class="cls-2" x1="74.25" y1="200.5" x2="1194.25" y2="200.5"/><line class="cls-2" x1="74.25" y1="150.5" x2="1194.25" y2="150.5"/><g id="trsvg158" class="cls-1"><g class="cls-1"><path d="M114.1,226.6c0,8.34-3,12.35-7.64,12.35-3.63,0-7-3.55-7.1-11.92s3.71-12.13,7.64-12.13C111.09,214.9,114.1,218.56,114.1,226.6Zm-13,.46c0,6.51,2.22,10.48,5.56,10.48,3.88,0,5.64-4.43,5.64-10.75,0-6.1-1.65-10.48-5.6-10.48C103.54,216.31,101.13,220.2,101.13,227.06Z" transform="translate(-88.41 -72.67)"/><path d="M117.4,237.36a1.5,1.5,0,0,1,1.47-1.63,1.62,1.62,0,1,1-1.47,1.63Z" transform="translate(-88.41 -72.67)"/><path d="M123.15,232.77c0-3,1.86-5.18,4.87-6.5v-.12c-2.81-1.22-3.93-3.27-3.93-5.28,0-3.5,2.87-6,6.63-6s6.17,2.6,6.17,5.56c0,2-.92,4.18-4.1,5.62v.14c3.28,1.29,4.93,3.46,4.93,6.14,0,4-3.41,6.59-7.3,6.59C126.23,239,123.15,236.32,123.15,232.77Zm12.82-.14c0-3.29-2.24-4.76-6-5.83-3.28.94-5,3.08-5,5.62-.14,2.76,1.94,5.12,5.48,5.12S136,235.47,136,232.63Zm-10.21-12c0,2.8,2,4.2,5.13,5,2.46-.86,4.26-2.46,4.26-5,0-2.09-1.28-4.33-4.62-4.33C127.46,216.28,125.76,218.3,125.76,220.62Z" transform="translate(-88.41 -72.67)"/></g></g><line class="cls-2" x1="74.25" y1="100.5" x2="1194.25" y2="100.5"/><g id="trsvg160" class="cls-1"><g class="cls-1"><path d="M106.45,117.82h-.07l-3.8,2.23-.42-1.35,4.41-2.61h1.55v23.26h-1.67Z" transform="translate(-88.41 -72.67)"/><path d="M117.4,138.15a1.49,1.49,0,0,1,1.47-1.62,1.47,1.47,0,0,1,1.44,1.62,1.5,1.5,0,0,1-1.47,1.6A1.48,1.48,0,0,1,117.4,138.15Z" transform="translate(-88.41 -72.67)"/><path d="M137.79,127.4c0,8.34-3,12.35-7.63,12.35-3.63,0-7-3.56-7.1-11.92s3.71-12.14,7.64-12.14C134.79,115.69,137.79,119.35,137.79,127.4Zm-13,.45c0,6.51,2.22,10.48,5.55,10.48,3.89,0,5.65-4.43,5.65-10.75,0-6.1-1.65-10.47-5.6-10.47C127.23,117.11,124.83,121,124.83,127.85Z" transform="translate(-88.41 -72.67)"/></g></g><line class="cls-2" x1="74.25" y1="50.5" x2="1194.25" y2="50.5"/><line class="cls-2" x1="74.25" y1="0.5" x2="1194.25" y2="0.5"/></svg>