<?xml version="1.0" encoding="utf-8"?>
<!-- Generator: Adobe Illustrator 25.2.3, SVG Export Plug-In . SVG Version: 6.00 Build 0)  -->
<svg version="1.1" id="图层_1" xmlns="http://www.w3.org/2000/svg" xmlns:xlink="http://www.w3.org/1999/xlink" x="0px" y="0px"
	 viewBox="0 0 378.65 231.17" style="enable-background:new 0 0 378.65 231.17;" xml:space="preserve">
<style type="text/css">
	.st0{fill:#C9C9C9;}
	.st1{fill:#232323;}
	.st2{fill:#A83B3B;}
	.st3{fill:#F9F3AA;}
	.st4{fill:#E2E2DC;}
</style>
<path class="st0" d="M131.1,152.46c0,0-33.05,3.25-50.68,5.49l47.48-16.85l-0.59-2.53c0,0-34.1,11.77-50.04,17.89l41.61-31.8
	l-1.34-2.23c0,0-29.25,21.97-42.42,32.6l29.51-44.26l-1.99-1.68c0,0-20.41,30.05-29.47,44.44l14.13-50.63l-2.41-0.98
	c0,0-8.65,30-13.21,47.51l2.52-48.91l-2.57-0.43c0,0-1.97,32.85-2.54,50.67l-10.24-49.44l-2.59,0.24c0,0,6.23,31.42,10.2,48.96
	l-26.11-44.96l-2.38,1.04c0,0,16.43,28.85,25.67,44.04l-34.73-36.5l-2.07,1.57c0,0,24.65,26.34,36.73,38.41L17.61,129.1l-1.49,2.13
	c0,0,31.98,17.76,47.05,25.45l-52.45-8.92l-0.72,2.5c0,0,35.76,6.39,52.59,8.8l-51.99,7.73l0.09,2.6c0,0,30.92-4.33,48.77-7.3
	l-45.69,17.63l0.66,2.52c0,0,30.8-11.58,47.31-18.33l-40.97,29.5l1.27,2.27c0,0,27.59-19.5,41.69-30.12l-25.97,46.39l2.11,1.52
	c0,0,18.84-32.98,26.45-47.58l-12.71,53.3l2.45,0.88c0,0,7.98-32.23,11.75-49.6l0.02,50.38l2.58,0.29c0,0,0.29-36.08-0.15-53.14
	l16.08,49.84l2.55-0.51c0,0-10.94-34.91-16.56-50.87l31.87,42.6l2.24-1.31c0,0-21.51-29.27-32.04-42.61l43,30.23l1.73-1.95
	c0,0-25.39-18.17-40.37-28.32l45.26,18.71l1.26-2.28c0,0-30.3-12.83-46.91-19.31l50.02,6.86l0.64-2.52c0,0-28-4.08-46.19-6.33
	l48.29-5.16L131.1,152.46z"/>
<path class="st1" d="M70.55,90.07C31.59,90.07,0,121.66,0,160.62c0,38.96,31.59,70.55,70.55,70.55s70.55-31.59,70.55-70.55
	C141.1,121.66,109.51,90.07,70.55,90.07z M70.55,221.14c-33.42,0-60.52-27.09-60.52-60.52c0-33.42,27.09-60.52,60.52-60.52
	s60.52,27.09,60.52,60.52C131.07,194.04,103.97,221.14,70.55,221.14z"/>
<path class="st0" d="M368.65,152.46c0,0-33.05,3.25-50.68,5.49l47.48-16.85l-0.59-2.53c0,0-34.1,11.77-50.04,17.89l41.61-31.8
	l-1.34-2.23c0,0-29.25,21.97-42.42,32.6l29.51-44.26l-1.99-1.68c0,0-20.41,30.05-29.47,44.44l14.13-50.63l-2.41-0.98
	c0,0-8.65,30-13.21,47.51l2.52-48.91l-2.57-0.43c0,0-1.97,32.85-2.54,50.67l-10.24-49.44l-2.59,0.24c0,0,6.23,31.42,10.2,48.96
	l-26.11-44.96l-2.38,1.04c0,0,16.43,28.85,25.67,44.04l-34.73-36.5l-2.07,1.57c0,0,24.65,26.34,36.73,38.41l-45.99-25.04l-1.49,2.13
	c0,0,31.98,17.76,47.05,25.45l-52.45-8.92l-0.72,2.5c0,0,35.76,6.39,52.59,8.8l-51.99,7.73l0.09,2.6c0,0,30.92-4.33,48.77-7.3
	l-45.69,17.63l0.66,2.52c0,0,30.8-11.58,47.31-18.33l-40.97,29.5l1.27,2.27c0,0,27.59-19.5,41.69-30.12l-25.97,46.39l2.11,1.52
	c0,0,18.84-32.98,26.45-47.58l-12.71,53.3l2.45,0.88c0,0,7.98-32.23,11.75-49.6l0.02,50.38l2.58,0.29c0,0,0.29-36.08-0.15-53.14
	l16.08,49.84l2.55-0.51c0,0-10.94-34.91-16.56-50.87l31.87,42.6l2.24-1.31c0,0-21.51-29.27-32.04-42.61l43,30.23l1.73-1.95
	c0,0-25.39-18.17-40.37-28.32l45.26,18.71l1.26-2.28c0,0-30.3-12.83-46.91-19.31l50.02,6.86l0.64-2.52c0,0-28-4.08-46.19-6.33
	l48.29-5.16L368.65,152.46z"/>
<path class="st1" d="M308.1,90.07c-38.96,0-70.55,31.59-70.55,70.55c0,38.96,31.59,70.55,70.55,70.55s70.55-31.59,70.55-70.55
	C378.65,121.66,347.07,90.07,308.1,90.07z M308.1,221.14c-33.42,0-60.52-27.09-60.52-60.52c0-33.42,27.09-60.52,60.52-60.52
	s60.52,27.09,60.52,60.52C368.62,194.04,341.52,221.14,308.1,221.14z"/>
<path class="st2" d="M69.96,159.97c3.82-1.15,72.25-73.62,72.25-73.62v-5.73c0,0-75.42,72.53-76.78,75.4
	C64.07,158.88,63.17,162.01,69.96,159.97z"/>
<path class="st2" d="M124.91,56.52c4.13,9.29,36.42,88.59,36.42,88.59l8.49-2.02l-38.41-91.54L124.91,56.52z"/>
<path class="st1" d="M100.6,38.2c-6.58-0.21-9.39,6.94-6.94,11.43s7.76,9.39,11.43,9.39s34.7-0.41,42.05,0s6.53-3.67,3.67-6.94
	s-7.35-1.6-13.88-3.46C130.4,46.78,113.26,38.61,100.6,38.2z"/>
<path class="st3" d="M270.86,86.11c0,0-24.21,14.92-33.31,25.15c-8.47,9.52-11.63,37.69-16.46,43.97
	c-4.83,6.28-35.76,13.77-35.76,13.77v-6.28c0,0,28.51-4.35,32.38-14.01c3.87-9.66,4.83-28.51,17.88-43.01s35.28-25.08,35.28-25.08
	V86.11z"/>
<path class="st3" d="M262.17,66.81c0,0-40.74,33.58-53.23,48.56s-48.54,5.25-48.54,5.25l-3.44-8.21c0,0,34.67,8.75,41.43,2.95
	s55.7-51.98,62.58-55.33C267.83,56.69,262.17,66.81,262.17,66.81z"/>
<path class="st2" d="M64.05,148.23c-6.19,1.09-11.11,8.7-9.18,14.5s6.77,8.7,12.56,10.15s104.86,14.01,115.97,12.08
	c11.11-1.93,19.33-10.63,18.85-24.16c-0.48-13.53-9.66-27.06-25.61-27.06S72.26,146.78,64.05,148.23z"/>
<path class="st2" d="M301.5,154.11c4.02,5.38,13.03,3.37,11.04-1.27c-1.99-4.64-50.47-105.11-54.07-111.02
	c-3.6-5.91-7.2,0.83-7.2,0.83L301.5,154.11z"/>
<circle class="st1" cx="308.1" cy="159.96" r="19.62"/>
<path class="st4" d="M257.78,42.77c0,0,10.08-7.55,10.19-19.22c0.11-11.84-16.82-22.06-23.68-23.19c-9.3-1.53-26.6,2.13-32.62,5.07
	c-5.56,2.72-1.72,9.48,3.38,9.91c5.11,0.43,21.11-5.39,29.68-5.48c6.29-0.06,15.26,8.38,16.23,13.45c0.76,4-4.88,10.48-7.01,12.19
	c-2.13,1.71-3.55,4.12-2.55,7.27C252.4,45.92,257.78,42.77,257.78,42.77z"/>
<path class="st1" d="M240.18,0c0,0-29.07,1.68-30.6,7.18s1.25,8.56,5.48,8.16c4.23-0.4,23.19-4.99,26.43-5.23
	C244.73,9.86,244.77,2.05,240.18,0z"/>
</svg>
