<?xml version="1.0" encoding="utf-8"?>
<!-- Generator: Adobe Illustrator 25.2.3, SVG Export Plug-In . SVG Version: 6.00 Build 0)  -->
<svg version="1.1" id="图层_1" xmlns="http://www.w3.org/2000/svg" xmlns:xlink="http://www.w3.org/1999/xlink" x="0px" y="0px"
	 viewBox="0 0 155.77 167.97" style="enable-background:new 0 0 155.77 167.97;" xml:space="preserve">
<style type="text/css">
	.st0{fill:#FFEB8A;}
	.st1{fill:#C1C1C1;}
	.st2{fill:#231815;}
	.st3{fill:#FF7676;}
	.st4{fill:none;stroke:#000000;stroke-width:3;stroke-miterlimit:10;}
</style>
<path class="st0" d="M39.31,15.27C3.7,29.17-5.14,65.04,2.59,96.94s40.59,50.25,86.5,32.86s43.01-57.02,34.31-80.7
	S78.94-0.19,39.31,15.27z"/>
<path class="st1" d="M45.61,4.16c-5.02,3.32-4.82,11.18-2.6,15.25c2.23,4.07,7.82,10.16,16.81,7.04s8.99-9.38,7.04-16.03
	C64.91,3.77,54.46-1.7,45.61,4.16z"/>
<path class="st2" d="M34.43,81.17c-5.15,2.26,1.29,20.85,6.77,18.96S39.58,78.92,34.43,81.17z"/>
<path class="st2" d="M91.51,64.08c-5.15,2.26,1.29,20.85,6.77,18.96C103.75,81.15,96.66,61.82,91.51,64.08z"/>
<path class="st3" d="M28.94,3.44C22,8.04,22.27,18.9,25.35,24.52s10.81,14.05,23.24,9.73s12.43-12.97,9.73-22.16
	S41.17-4.66,28.94,3.44z"/>
<path class="st1" d="M22.68,13.16c-3.67,0.44-9.33,9.2-4.73,17.3s15.83,8.32,19.26,3.62C40.65,29.38,29.58,12.34,22.68,13.16z"/>
<path class="st4" d="M54.72,136.5c0.54,6.99,13.19,28.9,13.19,28.9"/>
<path class="st4" d="M109.82,118.1c13.42,10.89,15.67,32.84,15.67,32.84"/>
<path class="st4" d="M14.67,111.32c-6.91,5.67-11.6,25.18-11.6,25.18"/>
<path class="st4" d="M123.81,80.99c3.87,0.97,20.62,5.66,27.38,11.69"/>
</svg>
