<svg id="line" xmlns="http://www.w3.org/2000/svg" viewBox="0 0 1128 719.66" style="position:absolute;transform:scale(0.9);left:8%;top:5vh;">
<defs>
<style>.cls-1{fill:none;stroke:#ff5f5f;stroke-linecap:butt;stroke-width:8px;}</style>
</defs>
<path class="cls-1" d="M177.66,663.17l8,20,8,20,8,15,8,20,8,10,8,5,8,5,8-5,8-5h16l8,5h8l8-15,8-5,8-10,8-10,8-10,8,5,8,10,8,20,8,10,8,15,8,10,8,15,8,10,8,10,8,10,8,5,8,5,8-15,8-20,8-10,8-10h8l8-5h24l8-10,8-5,8-5,8-5,8-5,8-5h8l8-5,8-10h24l8-5,8-5,8-5,8-10,8-15,8-25,8-25,8-20,8-15,8-15,8-10,8,5,8,15,8,15,8,20,8,20,8,15,8,5h8l8-5h24l8-5,8-5,8-5,8-15,8-10,8-10,8,10,8,10,8,10,8,5,8,5,8,5,8-5,8-10,8-5,8-10h24l8-5,8-5,8-10,8-15,8-25,8-20,8-20,8-5,8-5,8,5h8l8-5,8-10,8-15,8-20,8-10h32l8-5,8-15,8-15,8-10,8-10,8-15,8-15,8-10,8-15,8-20,8-10,8-5,8-5,8-5h8l8-5h8l8-10,8-15,8-20,8-25,8-20,8-25,8-20,8-15,8-15,8-15" transform="translate(-173.66 -114.17)"/>
</svg>