<?xml version="1.0" encoding="utf-8"?>
<!-- Generator: Adobe Illustrator 25.3.0, SVG Export Plug-In . SVG Version: 6.00 Build 0)  -->
<svg version="1.1" id="图层_1" xmlns="http://www.w3.org/2000/svg" xmlns:xlink="http://www.w3.org/1999/xlink" x="0px" y="0px"
	 viewBox="0 0 1302.5 1509.2" style="enable-background:new 0 0 1302.5 1509.2;" xml:space="preserve">
<style type="text/css">
	.st0{fill:#E6E8E8;}
	.st1{fill:#CBD5D8;}
	.st2{fill:#C0CBCE;}
	.st3{fill:#D8D8D8;}
	.st4{fill:#D1CFC5;}
	.st5{fill:#D3D6C1;}
	.st6{fill:#E5DEC1;}
	.st7{display:none;}
	.st8{display:inline;fill:#9B2727;}
	.st9{display:inline;}
	.st10{fill:#EDEDED;}
	.st11{display:inline;fill:#F9F8F4;}
	.st12{display:inline;fill:#EFE1B9;}
	.st13{fill:#FFF7DE;}
	.st14{display:inline;fill:#D1C197;}
	.st15{display:inline;fill:#F9F8F7;}
	.st16{display:inline;fill:#D84A4A;}
	.st17{display:inline;fill:#EDEDED;}
	.st18{display:inline;fill:#3D3D3D;}
</style>
<g id="图层_5">
	<polygon class="st0" points="621.4,1288.7 902.1,1299.8 914.1,1554 593.2,1547.6 	"/>
	<polygon class="st1" points="487.1,628.1 503.7,650.2 503.7,728.7 524.2,766.3 527.4,875.5 592.3,958.2 602.5,1315.1 686.1,1440.6 
		686.1,1563 495.4,1563 	"/>
	<path class="st2" d="M948.8,710l-141.6,74.8c0,0-52.9,696.4-35.8,800.4h238.8C1015.4,1482.8,948.8,710,948.8,710z M832.8,848.1V801
		l90.4-48.4l6.8,77.6L832.8,848.1z"/>
	<polygon class="st3" points="570.1,1129.6 730.5,1147.5 737.3,1556.1 554,1545.9 	"/>
	<polygon class="st4" points="1071.7,909.6 872.1,941.5 861.8,1556.1 1095.5,1556.1 	"/>
	<polygon class="st5" points="350,808.9 503.7,808.9 511.5,1545.9 329.6,1534 	"/>
	<polygon class="st6" points="452.2,547.9 469.7,1523.7 217.7,1523.7 244.3,547.9 	"/>
</g>
<g id="图层_4" class="st7">
	<polygon class="st8" points="1010.2,575.2 1037.5,1545.9 1230.3,1509.2 1220.1,547.9 	"/>
	<g class="st9">
		<polygon class="st10" points="426.8,1223.6 433.1,1410.1 439.5,1410.1 433.1,1220 		"/>
		<polygon class="st10" points="439.5,1223.6 445.9,1410.1 452.2,1410.1 445.9,1220 		"/>
		<polygon class="st10" points="508.9,1223.6 515.3,1410.1 521.6,1410.1 515.3,1220 		"/>
		<polygon class="st10" points="521.6,1223.6 528,1410.1 534.4,1410.1 528,1220 		"/>
		<polygon class="st10" points="534.4,1223.6 540.7,1410.2 547.1,1410.2 540.7,1220.1 		"/>
		<polygon class="st10" points="467.3,1223.6 473.7,1410.2 480,1410.2 473.7,1220.1 		"/>
		<polygon class="st10" points="454.4,1223.4 456.3,1410.1 462.7,1410.2 460.9,1220.1 		"/>
		<polygon class="st10" points="482.1,1223.4 484,1410.1 490.4,1410.2 488.6,1220.1 		"/>
		<polygon class="st10" points="495.4,1223.4 497.3,1410.1 503.7,1410.2 501.8,1220.1 		"/>
	</g>
	<g class="st9">
		<polygon class="st10" points="410.3,784 416.6,970.6 423,970.6 416.6,780.5 		"/>
		<polygon class="st10" points="423,784 429.3,970.6 435.7,970.6 429.3,780.5 		"/>
		<polygon class="st10" points="492.4,784 498.7,970.6 505.1,970.6 498.7,780.5 		"/>
		<polygon class="st10" points="505.1,784 511.5,970.6 517.8,970.6 511.5,780.5 		"/>
		<polygon class="st10" points="517.8,784.1 524.2,970.7 530.5,970.7 524.2,780.6 		"/>
		<polygon class="st10" points="450.8,784.1 457.1,970.7 463.5,970.7 457.1,780.6 		"/>
		<polygon class="st10" points="437.9,783.9 439.8,970.6 446.2,970.7 444.3,780.5 		"/>
		<polygon class="st10" points="465.6,783.9 467.5,970.6 473.9,970.7 472,780.5 		"/>
		<polygon class="st10" points="478.8,783.9 480.8,970.6 487.1,970.7 485.3,780.5 		"/>
	</g>
	<rect x="402.9" y="1207.4" class="st11" width="143.7" height="21.2"/>
	<rect x="385.3" y="774.1" class="st11" width="143.7" height="21.2"/>
	<path class="st12" d="M397.4,599.4c0,0-2.7,210.9,0,250.7s20.6,392.7,20.6,409.2s5.5,249.9,5.5,249.9H0V599.4H397.4z"/>
	<g id="图层_3" class="st9">
	</g>
	<g class="st9">
		<path class="st13" d="M305,1514.3c0,0-1.3-168.2-3.2-199.2c-1.8-31-1.8-381.6-3.1-406.2c-1.2-24.6,7.4-155.9,6.1-175.6
			c-1.2-19.6,0-136.3,0-136.3l-111.5,0.9c0.3,57.2,0.8,187.4-0.1,197.4c-1,10.1-134.9,4.4-193.2,1.4v258.7l198.1-1.1l-4.4,236.5H0
			v218.4L305,1514.3z"/>
		<path class="st13" d="M193.3,597.9c-0.1-16.3-0.1-26.7-0.1-26.7l-230.9-13.5l11.1,237.6c0,0,10.4,0.6,26.6,1.4V599.4L193.3,597.9z
			"/>
		<polygon class="st13" points="-37.7,1055.6 -34,1290.8 0,1290.8 0,1055.4 		"/>
	</g>
	<path class="st14" d="M554,955.9c-35.7,1.4-101.6,5.5-130.4,5.5S208,943.5,187.4,942.2c-20.6-1.4-187.4,0-187.4,0V971
		c0,0,262.9,8.2,290.3,9.6c27.5,1.4,174.4,8.2,189.5,5.5s74.1,0.6,74.1,0.6v-30.8H554z"/>
	<path class="st14" d="M-2.1,1402.1c0,0,298,5.5,321.3,5.5s258.1-5.5,258.1-5.5v30.2c0,0-494.3,8.2-531.4,8.2s-48.1,0-48.1,0v-38.4
		H-2.1z"/>
	<polygon class="st15" points="211.8,784.7 -62.2,784.7 -50,875.6 217.7,859.8 	"/>
	<polygon class="st15" points="-31.1,1356.3 226,1348.6 217.7,1279 -62.2,1279 	"/>
	<path class="st16" d="M1037.5,575.2c0,0,13.6,389,15.4,448.7c1.7,59.7,15.4,323.2,15.4,378.3s0,143.8,0,143.8l274.7-22.2
		l-10.2-948.5L1037.5,575.2L1037.5,575.2z"/>
	<polygon class="st17" points="1105.8,650.2 1114.3,784.7 1320.7,784.7 1320.7,650.2 	"/>
	<polygon class="st17" points="1105.8,890.8 1112.6,1025.6 1320.7,1025.6 1320.7,895.9 	"/>
	<path class="st17" d="M1120.3,1126.2v121.1l200.5-8.5v-124.5c0,0-82.5-6.8-119.2,2.2C1168.1,1124.7,1120.3,1126.2,1120.3,1126.2z"
		/>
	<polygon class="st17" points="1110.9,1315.1 1120.3,1440.6 1320.7,1440.6 1320.7,1315.1 	"/>
	<polygon class="st18" points="1190.2,892.8 1196.2,1025.6 1112.6,1025.6 1105.8,890.8 	"/>
	<polygon class="st18" points="1196.2,650.2 1105.8,650.2 1114.3,784.7 1196.2,784.7 	"/>
	<polygon class="st18" points="1205.7,1115.5 1120.3,1126.2 1120.3,1247.3 1199.6,1244 	"/>
	<polygon class="st18" points="1199.6,1315.2 1110.9,1315.1 1120.3,1440.6 1199.6,1440.6 	"/>
</g>
</svg>
