<?xml version="1.0" encoding="utf-8"?>
<!-- Generator: Adobe Illustrator 25.3.0, SVG Export Plug-In . SVG Version: 6.00 Build 0)  -->
<svg version="1.1" id="图层_1" xmlns="http://www.w3.org/2000/svg" xmlns:xlink="http://www.w3.org/1999/xlink" x="0px" y="0px"
	 viewBox="0 0 1302.5 3276.9" style="enable-background:new 0 0 1302.5 3276.9;" xml:space="preserve">
<style type="text/css">
	.st0{fill:#E1ECEF;}
	.st1{opacity:0.47;fill:#FFFFFF;enable-background:new    ;}
	.st2{display:none;}
	.st3{display:inline;}
	.st4{fill:#E6E8E8;}
	.st5{fill:#CBD5D8;}
	.st6{fill:#C0CBCE;}
	.st7{fill:#D8D8D8;}
	.st8{fill:#D1CFC5;}
	.st9{fill:#D3D6C1;}
	.st10{fill:#E5DEC1;}
	.st11{fill:#9B2727;}
	.st12{fill:#EDEDED;}
	.st13{fill:#F9F8F4;}
	.st14{fill:#EFE1B9;}
	.st15{fill:#FFF7DE;}
	.st16{fill:#D1C197;}
	.st17{fill:#F9F8F7;}
	.st18{fill:#D84A4A;}
	.st19{fill:#3D3D3D;}
</style>
<g id="图层_2_1_">
	<rect y="0" class="st0" width="1302.5" height="3276.9"/>
	<g>
		<circle class="st1" cx="272.4" cy="-85.4" r="237"/>
		<circle class="st1" cx="691.5" cy="-85.4" r="237"/>
		<circle class="st1" cx="1124.4" cy="-66.4" r="237"/>
		<circle class="st1" cx="479.6" cy="-35.4" r="237"/>
		<circle class="st1" cx="122.2" cy="-50.9" r="237"/>
		<circle class="st1" cx="892.6" cy="-35.4" r="237"/>
		<circle class="st1" cx="1291.9" cy="-35.4" r="237"/>
		<circle class="st1" cx="136.2" cy="19.8" r="237"/>
		<circle class="st1" cx="541.5" cy="54.3" r="237"/>
		<circle class="st1" cx="988.2" cy="85.4" r="237"/>
		<circle class="st1" cx="285" cy="38.8" r="237"/>
		<circle class="st1" cx="-14" cy="54.3" r="237"/>
		<circle class="st1" cx="710.8" cy="38.8" r="237"/>
		<circle class="st1" cx="1241.9" cy="54.3" r="237"/>
	</g>
</g>
<g id="图层_1_1_" class="st2">
	<g id="图层_5" class="st3">
		<polygon class="st4" points="621.4,689.3 902.1,700.4 914.1,954.6 593.2,948.2 		"/>
		<polygon class="st5" points="487.1,28.7 503.7,50.8 503.7,129.3 524.2,166.9 527.4,276.1 592.3,358.8 602.5,715.7 686.1,841.2 
			686.1,963.6 495.4,963.6 		"/>
		<path class="st6" d="M948.8,110.6l-141.6,74.8c0,0-52.9,696.4-35.8,800.4h238.8C1015.4,883.4,948.8,110.6,948.8,110.6z
			 M832.8,248.7v-47.1l90.4-48.4l6.8,77.6L832.8,248.7z"/>
		<polygon class="st7" points="570.1,530.2 730.5,548.1 737.3,956.7 554,946.5 		"/>
		<polygon class="st8" points="1071.7,310.2 872.1,342.1 861.8,956.7 1095.5,956.7 		"/>
		<polygon class="st9" points="350,209.5 503.7,209.5 511.5,946.5 329.6,934.6 		"/>
		<polygon class="st10" points="452.2,-51.5 469.7,924.3 217.7,924.3 244.3,-51.5 		"/>
	</g>
	<g id="图层_4" class="st3">
		<polygon class="st11" points="1010.2,-24.2 1037.5,946.5 1230.3,909.8 1220.1,-51.5 		"/>
		<g>
			<polygon class="st12" points="426.8,624.2 433.1,810.7 439.5,810.7 433.1,620.6 			"/>
			<polygon class="st12" points="439.5,624.2 445.9,810.7 452.2,810.7 445.9,620.6 			"/>
			<polygon class="st12" points="508.9,624.2 515.3,810.7 521.6,810.7 515.3,620.6 			"/>
			<polygon class="st12" points="521.6,624.2 528,810.7 534.4,810.7 528,620.6 			"/>
			<polygon class="st12" points="534.4,624.2 540.7,810.8 547.1,810.8 540.7,620.7 			"/>
			<polygon class="st12" points="467.3,624.2 473.7,810.8 480,810.8 473.7,620.7 			"/>
			<polygon class="st12" points="454.4,624 456.3,810.7 462.7,810.8 460.9,620.7 			"/>
			<polygon class="st12" points="482.1,624 484,810.7 490.4,810.8 488.6,620.7 			"/>
			<polygon class="st12" points="495.4,624 497.3,810.7 503.7,810.8 501.8,620.7 			"/>
		</g>
		<g>
			<polygon class="st12" points="410.3,184.6 416.6,371.2 423,371.2 416.6,181.1 			"/>
			<polygon class="st12" points="423,184.6 429.3,371.2 435.7,371.2 429.3,181.1 			"/>
			<polygon class="st12" points="492.4,184.6 498.7,371.2 505.1,371.2 498.7,181.1 			"/>
			<polygon class="st12" points="505.1,184.6 511.5,371.2 517.8,371.2 511.5,181.1 			"/>
			<polygon class="st12" points="517.8,184.7 524.2,371.3 530.5,371.3 524.2,181.2 			"/>
			<polygon class="st12" points="450.8,184.7 457.1,371.3 463.5,371.3 457.1,181.2 			"/>
			<polygon class="st12" points="437.9,184.5 439.8,371.2 446.2,371.3 444.3,181.1 			"/>
			<polygon class="st12" points="465.6,184.5 467.5,371.2 473.9,371.3 472,181.1 			"/>
			<polygon class="st12" points="478.8,184.5 480.8,371.2 487.1,371.3 485.3,181.1 			"/>
		</g>
		<rect x="402.9" y="608" class="st13" width="143.7" height="21.2"/>
		<rect x="385.3" y="174.7" class="st13" width="143.7" height="21.2"/>
		<path class="st14" d="M397.4,0c0,0-2.7,210.9,0,250.7S418,643.4,418,659.9s5.5,249.9,5.5,249.9H0V0H397.4z"/>
		<g id="图层_3">
		</g>
		<g>
			<path class="st15" d="M305,914.9c0,0-1.3-168.2-3.2-199.2c-1.8-31-1.8-381.6-3.1-406.2c-1.2-24.6,7.4-155.9,6.1-175.6
				c-1.2-19.6,0-136.3,0-136.3L193.3-1.5c0.3,57.2,0.8,187.4-0.1,197.4c-1,10.1-134.9,4.4-193.2,1.4V456l198.1-1.1l-4.4,236.5H0
				v218.4L305,914.9z"/>
			<path class="st15" d="M193.3-1.5c-0.1-16.3-0.1-26.7-0.1-26.7L-37.7-41.7l11.1,237.6c0,0,10.4,0.6,26.6,1.4V0L193.3-1.5z"/>
			<polygon class="st15" points="-37.7,456.2 -34,691.4 0,691.4 0,456 			"/>
		</g>
		<path class="st16" d="M554,356.5c-35.7,1.4-101.6,5.5-130.4,5.5S208,344.1,187.4,342.8c-20.6-1.4-187.4,0-187.4,0v28.8
			c0,0,262.9,8.2,290.3,9.6c27.5,1.4,174.4,8.2,189.5,5.5s74.1,0.6,74.1,0.6v-30.8H554z"/>
		<path class="st16" d="M-2.1,802.7c0,0,298,5.5,321.3,5.5s258.1-5.5,258.1-5.5v30.2c0,0-494.3,8.2-531.4,8.2s-48.1,0-48.1,0v-38.4
			H-2.1z"/>
		<polygon class="st17" points="211.8,185.3 -62.2,185.3 -50,276.2 217.7,260.4 		"/>
		<polygon class="st17" points="-31.1,756.9 226,749.2 217.7,679.6 -62.2,679.6 		"/>
		<path class="st18" d="M1037.5-24.2c0,0,13.6,389,15.4,448.7c1.7,59.7,15.4,323.2,15.4,378.3s0,143.8,0,143.8l274.7-22.2
			l-10.2-948.5L1037.5-24.2L1037.5-24.2z"/>
		<polygon class="st12" points="1105.8,50.8 1114.3,185.3 1320.7,185.3 1320.7,50.8 		"/>
		<polygon class="st12" points="1105.8,291.4 1112.6,426.2 1320.7,426.2 1320.7,296.5 		"/>
		<path class="st12" d="M1120.3,526.8v121.1l200.5-8.5V514.9c0,0-82.5-6.8-119.2,2.2C1168.1,525.3,1120.3,526.8,1120.3,526.8z"/>
		<polygon class="st12" points="1110.9,715.7 1120.3,841.2 1320.7,841.2 1320.7,715.7 		"/>
		<polygon class="st19" points="1190.2,293.4 1196.2,426.2 1112.6,426.2 1105.8,291.4 		"/>
		<polygon class="st19" points="1196.2,50.8 1105.8,50.8 1114.3,185.3 1196.2,185.3 		"/>
		<polygon class="st19" points="1205.7,516.1 1120.3,526.8 1120.3,647.9 1199.6,644.6 		"/>
		<polygon class="st19" points="1199.6,715.8 1110.9,715.7 1120.3,841.2 1199.6,841.2 		"/>
	</g>
</g>
</svg>
