<?xml version="1.0" encoding="utf-8"?>
<!-- Generator: Adobe Illustrator 25.3.0, SVG Export Plug-In . SVG Version: 6.00 Build 0)  -->
<svg version="1.1" id="图层_2_1_" xmlns="http://www.w3.org/2000/svg" xmlns:xlink="http://www.w3.org/1999/xlink" x="0px"
	 y="0px" viewBox="0 0 1302.5 909.8" style="enable-background:new 0 0 1302.5 909.8;" xml:space="preserve">
<style type="text/css">
	.st0{display:none;fill:#B8F5FF;}
	.st1{fill:url(#SVGID_1_);}
	.st2{fill:url(#SVGID_2_);}
	.st3{fill:url(#SVGID_3_);}
	.st4{fill:url(#SVGID_4_);}
	.st5{fill:url(#SVGID_5_);}
	.st6{fill:url(#SVGID_6_);}
	.st7{fill:url(#SVGID_7_);}
	.st8{fill:#E5E3B1;}
	.st9{fill:url(#SVGID_8_);}
	.st10{fill:url(#SVGID_9_);}
	.st11{fill:url(#SVGID_10_);}
	.st12{fill:url(#SVGID_11_);}
	.st13{fill:url(#SVGID_12_);}
	.st14{fill:url(#SVGID_13_);}
	.st15{fill:url(#SVGID_14_);}
	.st16{fill:url(#SVGID_15_);}
	.st17{fill:url(#SVGID_16_);}
	.st18{fill:url(#SVGID_17_);}
	.st19{fill:url(#SVGID_18_);}
	.st20{fill:#816728;}
	.st21{fill:#0A0104;}
	.st22{fill:#DDC07C;}
	.st23{fill:#D3CA91;}
	.st24{fill:#F5EDC6;}
	.st25{fill:url(#SVGID_19_);}
	.st26{fill:url(#SVGID_20_);}
	.st27{fill:url(#SVGID_21_);}
	.st28{fill:url(#SVGID_22_);}
	.st29{fill:url(#SVGID_23_);}
	.st30{fill:url(#SVGID_24_);}
	.st31{fill:url(#SVGID_25_);}
	.st32{fill:url(#SVGID_26_);}
</style>
<rect y="0" class="st0" width="1302.5" height="420.7"/>
<linearGradient id="SVGID_1_" gradientUnits="userSpaceOnUse" x1="641.1066" y1="877.5884" x2="649.9351" y2="413.2073" gradientTransform="matrix(1 0 0 -1 0 907.8898)">
	<stop  offset="0" style="stop-color:#1A9D00"/>
	<stop  offset="1" style="stop-color:#1ACC00"/>
</linearGradient>
<path class="st1" d="M0,304.5c84.9-11.8,509,29.7,883.3-0.3c160.9-12.9,419.2-86.3,419.2-86.3v691.9H0V304.5z"/>
<linearGradient id="SVGID_2_" gradientUnits="userSpaceOnUse" x1="655.6611" y1="455.9418" x2="648.5983" y2="138.1144" gradientTransform="matrix(1 0 0 -1 0 907.8898)">
	<stop  offset="0" style="stop-color:#1ACC00"/>
	<stop  offset="0.5127" style="stop-color:#1A9D00"/>
	<stop  offset="1" style="stop-color:#1ACC00"/>
</linearGradient>
<path class="st2" d="M0,391.1c0,0,693,70.5,862.2,63.8s440.3-12.6,440.3-12.6v467.5H0V391.1z"/>
<linearGradient id="SVGID_3_" gradientUnits="userSpaceOnUse" x1="617.4189" y1="-260.5992" x2="658.0302" y2="295.5988" gradientTransform="matrix(1 0 0 -1 0 907.8898)">
	<stop  offset="0" style="stop-color:#1A9D00"/>
	<stop  offset="1" style="stop-color:#1ACC00"/>
</linearGradient>
<path class="st3" d="M0,500.5c0,0,592.6-4.7,687.1,0s615.4,14.1,615.4,14.1v395.2H0V500.5z"/>
<g>
	
		<linearGradient id="SVGID_4_" gradientUnits="userSpaceOnUse" x1="705.6932" y1="386.2507" x2="703.5696" y2="358.4797" gradientTransform="matrix(1 0 0 -1 0 907.8898)">
		<stop  offset="0" style="stop-color:#C0AA71"/>
		<stop  offset="1" style="stop-color:#472D0A"/>
	</linearGradient>
	<path class="st4" d="M700.6,565.8c0.2-3.3,2.1-12.3,0-16.1s-5.8-15.3-6.1-27.2c-0.4-11.9-0.3-18,3.6-21.3
		c3.9-3.3,17.3,51.1,17.3,51.1l-7.8,18.1L700.6,565.8z"/>
	
		<linearGradient id="SVGID_5_" gradientUnits="userSpaceOnUse" x1="737.3903" y1="388.8368" x2="735.4301" y2="361.7191" gradientTransform="matrix(1 0 0 -1 0 907.8898)">
		<stop  offset="0" style="stop-color:#C1AD76"/>
		<stop  offset="1" style="stop-color:#472D0A"/>
	</linearGradient>
	<path class="st5" d="M734.2,584.2c0.3-0.5,0.7-3.4,0-5.7s-0.6-10.3,0.4-13.1c0.9-2.8,5.2-10.1,7.3-15s4.1-13.7,4.2-17.3
		c0.2-3.6,0.9-13.7,0-15.7s0-3.1-1.5-5.9c-1.5-2.8-18.8,14.2-18.1,24.8c0.7,10.6-0.2,18.6,1.1,23.7c1.3,5.1,2.4,18,1.1,19.9
		c-1.3,1.9,0.2,4.2,0.2,4.2L734.2,584.2L734.2,584.2z"/>
	
		<linearGradient id="SVGID_6_" gradientUnits="userSpaceOnUse" x1="715.5098" y1="345.6576" x2="725.638" y2="446.6134" gradientTransform="matrix(1 0 0 -1 0 907.8898)">
		<stop  offset="0" style="stop-color:#E5E3B1"/>
		<stop  offset="1" style="stop-color:#9B6F30"/>
	</linearGradient>
	<path class="st6" d="M704.3,530.1c0.5,5-0.1,28.7-0.1,28.7l18.2,5.9c0,0,8.8-11.3,8.8-29.1c0-8.8,17.6-14.9,13.4-24.2
		c-4.2-9.3-19.1-24.3-30.2-20.6c-11.1,3.8-20.6,9-17.8,20.7C699.4,523.5,703.5,523.1,704.3,530.1z"/>
	
		<linearGradient id="SVGID_7_" gradientUnits="userSpaceOnUse" x1="705.3074" y1="339.2734" x2="698.3007" y2="329.6091" gradientTransform="matrix(1 0 0 -1 0 907.8898)">
		<stop  offset="0" style="stop-color:#E5E3B1"/>
		<stop  offset="0.1206" style="stop-color:#E0DEAC"/>
		<stop  offset="0.2723" style="stop-color:#D3CE9E"/>
		<stop  offset="0.4407" style="stop-color:#BCB486"/>
		<stop  offset="0.6211" style="stop-color:#9D9065"/>
		<stop  offset="0.8105" style="stop-color:#76633B"/>
		<stop  offset="1" style="stop-color:#472D0A"/>
	</linearGradient>
	<path class="st7" d="M704.2,558.9c-4.9,3.3-7.6,10.9-8.2,13.1c-0.5,2.2-0.2,14.1,5,15.2l5.4-23.3L704.2,558.9z"/>
	<path class="st8" d="M713.6,557.6c-5.9,0-7.4-0.4-9.4,1.3s-3.8,10.9-3.1,13.1c0.7,2.1-2.6,16.8,0.7,18.6s7.5,1.6,9.8,0
		s2.3-8.5,4.4-9.8s4.1-5,4.2-6.1c0.2-1.1,2-11.1,0-13.2C718.3,559.4,713.6,557.6,713.6,557.6z"/>
	
		<linearGradient id="SVGID_8_" gradientUnits="userSpaceOnUse" x1="719.8895" y1="343.2328" x2="727.7418" y2="331.0315" gradientTransform="matrix(1 0 0 -1 0 907.8898)">
		<stop  offset="0" style="stop-color:#E5E3B1"/>
		<stop  offset="0.1206" style="stop-color:#E0DEAC"/>
		<stop  offset="0.2723" style="stop-color:#D3CE9E"/>
		<stop  offset="0.4407" style="stop-color:#BCB486"/>
		<stop  offset="0.6211" style="stop-color:#9D9065"/>
		<stop  offset="0.8105" style="stop-color:#76633B"/>
		<stop  offset="1" style="stop-color:#472D0A"/>
	</linearGradient>
	<path class="st9" d="M730.4,584.2c-0.8-6.9-3.4-18.8-10.1-22.7c0,0-2.5,6,0,10S728.1,583.9,730.4,584.2z"/>
</g>
<g>
	
		<linearGradient id="SVGID_9_" gradientUnits="userSpaceOnUse" x1="1274.54" y1="168.9049" x2="1269.8799" y2="107.9656" gradientTransform="matrix(1 0 0 -1 0 907.8898)">
		<stop  offset="0" style="stop-color:#C0AA71"/>
		<stop  offset="1" style="stop-color:#472D0A"/>
	</linearGradient>
	<path class="st10" d="M1263.5,835.9c0.5-7.3,4.6-27,0-35.4s-12.7-33.5-13.5-59.7s-0.7-39.4,7.8-46.6c8.5-7.2,38,112.2,38,112.2
		l-17.2,39.8L1263.5,835.9z"/>
	
		<linearGradient id="SVGID_10_" gradientUnits="userSpaceOnUse" x1="1344.0992" y1="174.5789" x2="1339.7976" y2="115.0734" gradientTransform="matrix(1 0 0 -1 0 907.8898)">
		<stop  offset="0" style="stop-color:#C1AD76"/>
		<stop  offset="1" style="stop-color:#472D0A"/>
	</linearGradient>
	<path class="st11" d="M1337.1,876.3c0.7-1.1,1.4-7.5,0-12.5s-1.2-22.6,0.8-28.7s11.4-22.2,16-33c4.7-10.8,9-30.1,9.3-38
		c0.4-7.9,2-30,0-34.4s0.1-6.7-3.2-12.9c-3.3-6.2-41.2,31.2-39.8,54.5s-0.4,40.9,2.5,52s5.3,39.6,2.5,43.7c-2.8,4.1,0.4,9.3,0.4,9.3
		L1337.1,876.3L1337.1,876.3z"/>
	
		<linearGradient id="SVGID_11_" gradientUnits="userSpaceOnUse" x1="1296.2816" y1="79.8105" x2="1318.5066" y2="301.343" gradientTransform="matrix(1 0 0 -1 0 907.8898)">
		<stop  offset="0" style="stop-color:#E5E3B1"/>
		<stop  offset="1" style="stop-color:#9B6F30"/>
	</linearGradient>
	<path class="st12" d="M1271.5,757.7c1.2,11.1-0.2,63.1-0.2,63.1l40,12.9c0,0,19.2-24.7,19.4-63.8c0.1-19.4,38.7-32.6,29.4-53.1
		c-9.3-20.4-41.9-53.4-66.3-45.2s-45.2,19.7-39.1,45.5C1260.7,743,1269.8,742.2,1271.5,757.7z"/>
	
		<linearGradient id="SVGID_12_" gradientUnits="userSpaceOnUse" x1="1273.674" y1="65.8724" x2="1258.2988" y2="44.6654" gradientTransform="matrix(1 0 0 -1 0 907.8898)">
		<stop  offset="0" style="stop-color:#E5E3B1"/>
		<stop  offset="0.1206" style="stop-color:#E0DEAC"/>
		<stop  offset="0.2723" style="stop-color:#D3CE9E"/>
		<stop  offset="0.4407" style="stop-color:#BCB486"/>
		<stop  offset="0.6211" style="stop-color:#9D9065"/>
		<stop  offset="0.8105" style="stop-color:#76633B"/>
		<stop  offset="1" style="stop-color:#472D0A"/>
	</linearGradient>
	<path class="st13" d="M1271.2,820.7c-10.8,7.2-16.7,23.9-17.9,28.7c-1.2,4.8-0.5,30.8,11,33.4l11.8-51.1L1271.2,820.7z"/>
	<path class="st8" d="M1291.9,817.9c-12.9,0-16.3-0.8-20.7,2.9s-8.3,24-6.7,28.7c1.6,4.7-5.6,36.9,1.6,40.9c7.2,3.9,16.5,3.6,21.5,0
		s5-18.6,9.7-21.5s9-10.9,9.3-13.3c0.4-2.5,4.3-24.3,0-29C1302.3,821.8,1291.9,817.9,1291.9,817.9z"/>
	
		<linearGradient id="SVGID_13_" gradientUnits="userSpaceOnUse" x1="1305.7061" y1="74.475" x2="1322.9369" y2="47.701" gradientTransform="matrix(1 0 0 -1 0 907.8898)">
		<stop  offset="0" style="stop-color:#E5E3B1"/>
		<stop  offset="0.1206" style="stop-color:#E0DEAC"/>
		<stop  offset="0.2723" style="stop-color:#D3CE9E"/>
		<stop  offset="0.4407" style="stop-color:#BCB486"/>
		<stop  offset="0.6211" style="stop-color:#9D9065"/>
		<stop  offset="0.8105" style="stop-color:#76633B"/>
		<stop  offset="1" style="stop-color:#472D0A"/>
	</linearGradient>
	<path class="st14" d="M1328.8,876.3c-1.8-15.1-7.5-41.2-22.2-49.8c0,0-5.4,13.3,0,21.9S1323.8,875.6,1328.8,876.3z"/>
</g>
<g>
	
		<linearGradient id="SVGID_14_" gradientUnits="userSpaceOnUse" x1="830.5676" y1="277.2305" x2="827.4143" y2="235.9949" gradientTransform="matrix(-0.846 0 0 -1 880.0171 907.8898)">
		<stop  offset="0" style="stop-color:#C0AA71"/>
		<stop  offset="1" style="stop-color:#472D0A"/>
	</linearGradient>
	<path class="st15" d="M184.8,696.3c-0.4-4.9-3.2-18.3,0-24s8.8-22.7,9.3-40.5s0.5-26.7-5.4-31.6c-5.9-4.9-26.2,76.1-26.2,76.1
		l11.9,27L184.8,696.3z"/>
	
		<linearGradient id="SVGID_15_" gradientUnits="userSpaceOnUse" x1="887.2881" y1="281.2978" x2="884.3625" y2="240.8277" gradientTransform="matrix(-0.846 0 0 -1 880.0171 907.8898)">
		<stop  offset="0" style="stop-color:#C1AD76"/>
		<stop  offset="1" style="stop-color:#472D0A"/>
	</linearGradient>
	<path class="st16" d="M134,723.7c-0.5-0.7-1-5.1,0-8.5s0.8-15.3-0.6-19.4c-1.4-4.1-7.8-15.1-11.1-22.4s-6.2-20.4-6.4-25.8
		c-0.2-5.3-1.4-20.4,0-23.3c1.4-3-0.1-4.5,2.2-8.8c2.3-4.2,28.5,21.1,27.5,36.9c-1,15.8,0.2,27.7-1.7,35.2c-2,7.5-3.7,26.8-1.7,29.7
		c1.9,2.8-0.2,6.3-0.2,6.3L134,723.7L134,723.7z"/>
	
		<linearGradient id="SVGID_16_" gradientUnits="userSpaceOnUse" x1="849.9651" y1="216.9695" x2="865.0232" y2="367.0653" gradientTransform="matrix(-0.846 0 0 -1 880.0171 907.8898)">
		<stop  offset="0" style="stop-color:#E5E3B1"/>
		<stop  offset="1" style="stop-color:#9B6F30"/>
	</linearGradient>
	<path class="st17" d="M179.3,643.2c-0.8,7.5,0.2,42.8,0.2,42.8l-27.6,8.8c0,0-13.3-16.8-13.4-43.3c0-13.1-26.7-22.1-20.3-36
		s29-36.2,45.8-30.6c16.8,5.6,31.2,13.4,27,30.9C186.8,633.3,180.5,632.8,179.3,643.2z"/>
	
		<linearGradient id="SVGID_17_" gradientUnits="userSpaceOnUse" x1="828.799" y1="207.823" x2="818.1363" y2="193.1158" gradientTransform="matrix(-0.846 0 0 -1 880.0171 907.8898)">
		<stop  offset="0" style="stop-color:#E5E3B1"/>
		<stop  offset="0.1206" style="stop-color:#E0DEAC"/>
		<stop  offset="0.2723" style="stop-color:#D3CE9E"/>
		<stop  offset="0.4407" style="stop-color:#BCB486"/>
		<stop  offset="0.6211" style="stop-color:#9D9065"/>
		<stop  offset="0.8105" style="stop-color:#76633B"/>
		<stop  offset="1" style="stop-color:#472D0A"/>
	</linearGradient>
	<path class="st18" d="M179.5,686c7.4,4.9,11.6,16.2,12.4,19.4c0.8,3.2,0.3,20.9-7.6,22.6l-8.2-34.7L179.5,686z"/>
	<path class="st8" d="M165.2,684.1c8.9,0,11.2-0.5,14.3,1.9c3,2.5,5.7,16.3,4.6,19.4c-1.1,3.2,3.9,25-1.1,27.7s-11.4,2.4-14.9,0
		s-3.5-12.6-6.7-14.6c-3.2-1.9-6.2-7.4-6.4-9c-0.2-1.7-3-16.5,0-19.6C158,686.7,165.2,684.1,165.2,684.1z"/>
	
		<linearGradient id="SVGID_18_" gradientUnits="userSpaceOnUse" x1="856.9514" y1="213.4991" x2="869.1664" y2="194.5189" gradientTransform="matrix(-0.846 0 0 -1 880.0171 907.8898)">
		<stop  offset="0" style="stop-color:#E5E3B1"/>
		<stop  offset="0.1206" style="stop-color:#E0DEAC"/>
		<stop  offset="0.2723" style="stop-color:#D3CE9E"/>
		<stop  offset="0.4407" style="stop-color:#BCB486"/>
		<stop  offset="0.6211" style="stop-color:#9D9065"/>
		<stop  offset="0.8105" style="stop-color:#76633B"/>
		<stop  offset="1" style="stop-color:#472D0A"/>
	</linearGradient>
	<path class="st19" d="M139.7,723.7c1.2-10.2,5.2-28,15.4-33.8c0,0,3.7,9,0,14.8S143.2,723.2,139.7,723.7z"/>
</g>
<g>
	<path class="st20" d="M410.2,678c0,0,6.2,2.8,7,7.6c0.9,4.8-1.2,28.3-3.5,31.9s-8.8,14.1-8.8,14.1h13.6c0,0,6.5-19,8.2-26.8
		c1.7-7.9,4.1-19.3,4.3-21.6c0.2-2.3-11.7-16.3-11.7-16.3L410.2,678z"/>
	<path class="st21" d="M325.2,690v44.9c0,0,9.7-0.7,11.7-0.9c2.1-0.2-2.9-13.7-3.6-19.2s-0.5-31.5-0.5-31.5L325.2,690z"/>
	<path class="st22" d="M429.3,598c-13.4-6.3-49.2-0.5-59.6,2.5c-10.5,3-23.6,3.7-26.2,7.3s-23.3,25.6-26.2,31.5
		c-2.9,5.9-14.1,25.2-16.4,28.5s-3.6,5.6-5.9,7.2c-2.3,1.6-9.8,8.5-11.8,12.5c-2,3.9-5.6,21-4.6,23.3s7.5-12.1,7.5-12.1
		s-2.9,29.5-0.3,30.5s12.1,1,13.4-3.6s0.7-6.6,2.6-8.2c2-1.6,8.5-8.8,10.5-11.5c0,0,3.3,9.8,6.9,10.8s2-16.4,2-23.3
		c0,0,36.1-9.2,42.6-12.8c6.6-3.6,40.6-0.6,44.9-2.6s20.6-15.6,20.6-15.6s22-33.3,21.6-39.8C450.6,616,429.3,598,429.3,598z"/>
	<path class="st23" d="M296.2,677.1c-5.5-0.9-11.5,5.9-13.1,10.4s-5.6,19.1-4.6,23.3c1,4.1,17-25.9,16.4-27.5
		S296.2,677.1,296.2,677.1z"/>
	<path class="st24" d="M304.4,677.9c-9.5-1.6-10.8-0.8-13,1.3s-6,6.9-5.7,13.8c0.3,6.9-4.3,34.4,0,37.4c4.3,2.9,10.8,0.3,13.4-3.6
		c2.6-3.9-0.4-5.3,2.6-8.2s8.5-7.5,10.5-11.5c2-3.9,6.6-7.2,5.6-15.7C316.9,682.8,304.4,677.9,304.4,677.9z"/>
	
		<linearGradient id="SVGID_19_" gradientUnits="userSpaceOnUse" x1="363.1548" y1="258.1437" x2="363.7521" y2="201.9853" gradientTransform="matrix(1 0 0 -1 0 907.8898)">
		<stop  offset="0" style="stop-color:#DDC07C"/>
		<stop  offset="0.135" style="stop-color:#D8BB78"/>
		<stop  offset="0.3047" style="stop-color:#C8AB6B"/>
		<stop  offset="0.4931" style="stop-color:#AE9256"/>
		<stop  offset="0.6949" style="stop-color:#8B6F38"/>
		<stop  offset="0.9052" style="stop-color:#5D4213"/>
		<stop  offset="1" style="stop-color:#462B00"/>
	</linearGradient>
	<path class="st25" d="M351.6,657.7c5.1,5.1,8.9,28.5,7.5,32.9c-1.4,4.5-1.2,17.3-1,19.7s0,15.8-1.2,17.7s-3.9,6.9-3.9,6.9
		s10.1,0.5,11.7,0c1.7-0.5,3.4-3.3,2.7-5.3c-0.7-1.9-1-4.7-1-7.4s0.3-15.9,1.2-19.1c0.9-3.2,5.2-15.8,5.5-19.8s0.2-9.1-0.7-13.8
		s2.4-19.2,2.4-19.2L351.6,657.7z"/>
	
		<linearGradient id="SVGID_20_" gradientUnits="userSpaceOnUse" x1="427.3362" y1="280.6516" x2="455.7141" y2="212.5445" gradientTransform="matrix(1 0 0 -1 0 907.8898)">
		<stop  offset="0" style="stop-color:#DDC07C"/>
		<stop  offset="0.135" style="stop-color:#D8BB78"/>
		<stop  offset="0.3047" style="stop-color:#C8AB6B"/>
		<stop  offset="0.4931" style="stop-color:#AE9256"/>
		<stop  offset="0.6949" style="stop-color:#8B6F38"/>
		<stop  offset="0.9052" style="stop-color:#5D4213"/>
		<stop  offset="1" style="stop-color:#462B00"/>
	</linearGradient>
	<path class="st26" d="M436,604c0,0,13.9,9,14.9,18.5s2.2,47.3,4.3,50.7c2.1,3.4,4.3,2.9,5.1,7.2c0.9,4.3,3.8,24.9,4.8,26.6
		c1,1.7,3.1,14.8,2.7,19.6c-0.3,4.8-10.6,3-10.6,3s2.4-14.6-1.2-24.8s-10-20.4-12.7-25.9s-2.1-10.6-7.3-15.1
		c-5.2-4.5-16.5-8.6-17-8.6s-8.8-6.5-8.8-6.5l9.8-21.3L436,604z"/>
	<path class="st24" d="M314.1,684.3c4.9,2.7,6.9,5.3,7,9.1s2.7,20.2,1.4,23.8c-1.3,3.6-9.1-3.4-10.3-10.1S314.1,684.3,314.1,684.3z"
		/>
</g>
<g>
	<path class="st20" d="M875.5,609.5c0,0,5.5,2.5,6.3,6.8s-1.1,25.2-3.1,28.4c-2.1,3.2-7.9,12.5-7.9,12.5h12.1c0,0,5.8-16.9,7.3-23.9
		s3.7-17.2,3.8-19.2c0.2-2-10.4-14.5-10.4-14.5L875.5,609.5z"/>
	<path class="st21" d="M799.8,620.2v39.9c0,0,8.6-0.6,10.4-0.8c1.8-0.2-2.6-12.2-3.2-17.1s-0.4-28.1-0.4-28.1L799.8,620.2z"/>
	<path class="st22" d="M892.4,538.3c-12-5.6-43.8-0.4-53.1,2.3s-21,3.3-23.3,6.5s-20.7,22.8-23.3,28c-2.6,5.3-12.5,22.5-14.6,25.4
		s-3.2,5-5.3,6.4c-2,1.5-8.8,7.6-10.5,11.1c-1.8,3.5-5,18.7-4.1,20.7s6.7-10.8,6.7-10.8s-2.6,26.3-0.3,27.1s10.8,0.9,12-3.2
		c1.2-4.1,0.6-5.8,2.3-7.3c1.8-1.5,7.6-7.9,9.3-10.2c0,0,2.9,8.8,6.1,9.6s1.8-14.6,1.8-20.7c0,0,32.1-8.2,37.9-11.4s36.2-0.6,40-2.3
		c3.8-1.8,18.4-13.8,18.4-13.8s19.6-29.6,19.3-35.5S892.4,538.3,892.4,538.3z"/>
	<path class="st23" d="M773.9,608.7c-4.9-0.8-10.2,5.2-11.6,9.3c-1.4,4-5,17-4.1,20.7s15.1-23.1,14.6-24.5
		C772.3,612.8,773.9,608.7,773.9,608.7z"/>
	<path class="st24" d="M781.3,609.4c-8.5-1.5-9.6-0.7-11.6,1.2s-5.3,6.1-5,12.2c0.3,6.1-3.8,30.6,0,33.3c3.8,2.6,9.6,0.3,12-3.2
		c2.3-3.5-0.3-4.7,2.3-7.3s7.6-6.7,9.3-10.2c1.8-3.5,5.8-6.4,5-14C792.3,613.8,781.3,609.4,781.3,609.4z"/>
	
		<linearGradient id="SVGID_21_" gradientUnits="userSpaceOnUse" x1="833.4594" y1="323.5573" x2="833.9914" y2="273.5561" gradientTransform="matrix(1 0 0 -1 0 907.8898)">
		<stop  offset="0" style="stop-color:#DDC07C"/>
		<stop  offset="0.135" style="stop-color:#D8BB78"/>
		<stop  offset="0.3047" style="stop-color:#C8AB6B"/>
		<stop  offset="0.4931" style="stop-color:#AE9256"/>
		<stop  offset="0.6949" style="stop-color:#8B6F38"/>
		<stop  offset="0.9052" style="stop-color:#5D4213"/>
		<stop  offset="1" style="stop-color:#462B00"/>
	</linearGradient>
	<path class="st27" d="M823.2,591.4c4.6,4.6,7.9,25.3,6.7,29.3s-1.1,15.4-0.9,17.6s0,14.1-1.1,15.7c-1.1,1.7-3.5,6.1-3.5,6.1
		s9,0.5,10.4,0c1.5-0.5,3-3,2.4-4.7s-0.9-4.2-0.9-6.6c0-2.4,0.3-14.2,1.1-17c0.8-2.9,4.6-14.1,4.9-17.6c0.3-3.6,0.2-8.1-0.6-12.2
		s2.1-17.1,2.1-17.1L823.2,591.4z"/>
	
		<linearGradient id="SVGID_22_" gradientUnits="userSpaceOnUse" x1="890.6855" y1="343.5937" x2="915.9521" y2="282.9539" gradientTransform="matrix(1 0 0 -1 0 907.8898)">
		<stop  offset="0" style="stop-color:#DDC07C"/>
		<stop  offset="0.135" style="stop-color:#D8BB78"/>
		<stop  offset="0.3047" style="stop-color:#C8AB6B"/>
		<stop  offset="0.4931" style="stop-color:#AE9256"/>
		<stop  offset="0.6949" style="stop-color:#8B6F38"/>
		<stop  offset="0.9052" style="stop-color:#5D4213"/>
		<stop  offset="1" style="stop-color:#462B00"/>
	</linearGradient>
	<path class="st28" d="M898.4,543.6c0,0,12.4,8,13.3,16.5c0.9,8.5,2,42.1,3.8,45.1c1.8,3.1,3.8,2.6,4.6,6.4
		c0.8,3.8,3.4,22.2,4.3,23.7c0.9,1.5,2.8,13.1,2.4,17.4c-0.3,4.3-9.5,2.7-9.5,2.7s2.1-13-1.1-22.1c-3.2-9-8.9-18.2-11.3-23.1
		c-2.4-4.9-1.9-9.5-6.5-13.4c-4.6-4-14.7-7.6-15.2-7.6s-7.8-5.8-7.8-5.8l8.7-18.9L898.4,543.6z"/>
	<path class="st24" d="M789.9,615.1c4.3,2.4,6.2,4.8,6.3,8.1s2.4,18,1.3,21.2s-8.1-3-9.2-9C787.2,629.4,789.9,615.1,789.9,615.1z"/>
</g>
<g>
	<path class="st20" d="M1033.7,818.2c0,0-9.2,3.7-10.5,10.1s1.8,37.3,5.2,42c3.5,4.7,13.2,18.5,13.2,18.5h-20.2
		c0,0-9.7-25-12.3-35.3s-6.1-25.4-6.4-28.4c-0.3-3,17.4-21.4,17.4-21.4L1033.7,818.2z"/>
	<path class="st21" d="M1160.5,834v59c0,0-14.4-0.9-17.5-1.1c-3.1-0.2,4.4-18.1,5.4-25.3s0.7-41.5,0.7-41.5L1160.5,834z"/>
	<path class="st22" d="M1005.3,713c20-8.2,73.3-0.6,89,3.3s35.2,4.8,39.1,9.6c3.9,4.7,34.7,33.6,39.1,41.4
		c4.4,7.8,21,33.2,24.4,37.5s5.4,7.3,8.8,9.5s14.7,11.2,17.6,16.4s8.3,27.6,6.8,30.6s-11.2-16-11.2-16s4.4,38.8,0.5,40.1
		s-18.1,1.3-20-4.7c-2-6-1-8.6-3.9-10.8s-12.7-11.6-15.6-15.1c0,0-4.9,12.9-10.3,14.2s-2.9-21.6-2.9-30.6c0,0-53.8-12.1-63.5-16.8
		c-9.8-4.7-60.6-0.8-67-3.4c-6.4-2.6-30.8-20.5-30.8-20.5s-32.8-43.8-32.3-52.4C973.5,736.7,1005.3,713,1005.3,713z"/>
	<path class="st23" d="M1203.8,817c8.1-1.2,17.2,7.7,19.5,13.7c2.3,5.9,8.4,25.2,6.8,30.6c-1.6,5.4-25.3-34.1-24.4-36.2
		C1206.5,823.1,1203.8,817,1203.8,817z"/>
	<path class="st24" d="M1191.5,818.1c14.2-2.2,16.1-1,19.4,1.7c3.3,2.8,8.9,9,8.5,18.1c-0.5,9.1,6.4,45.3,0,49.2s-16.1,0.4-20-4.7
		c-3.9-5.2,0.5-6.9-3.9-10.8c-4.4-3.9-12.7-9.9-15.6-15.1s-9.8-9.5-8.3-20.7C1172.9,824.6,1191.5,818.1,1191.5,818.1z"/>
	
		<linearGradient id="SVGID_23_" gradientUnits="userSpaceOnUse" x1="1524.0652" y1="126.8472" x2="1524.8513" y2="52.9594" gradientTransform="matrix(-1.1337 0 0 -1 2831.8003 907.8898)">
		<stop  offset="0" style="stop-color:#DDC07C"/>
		<stop  offset="0.135" style="stop-color:#D8BB78"/>
		<stop  offset="0.3047" style="stop-color:#C8AB6B"/>
		<stop  offset="0.4931" style="stop-color:#AE9256"/>
		<stop  offset="0.6949" style="stop-color:#8B6F38"/>
		<stop  offset="0.9052" style="stop-color:#5D4213"/>
		<stop  offset="1" style="stop-color:#462B00"/>
	</linearGradient>
	<path class="st29" d="M1121.2,791.5c-7.7,6.8-13.3,37.5-11.2,43.3c2,5.9,1.8,22.8,1.5,26s0,20.8,1.8,23.3s5.9,9,5.9,9
		s-15,0.7-17.5,0s-5-4.4-4-6.9c1-2.6,1.5-6.2,1.5-9.8s-0.5-20.9-1.8-25.1s-7.7-20.8-8.2-26.1s-0.3-12,1-18.1s-3.6-25.3-3.6-25.3
		L1121.2,791.5z"/>
	
		<linearGradient id="SVGID_24_" gradientUnits="userSpaceOnUse" x1="1608.6213" y1="156.4677" x2="1645.9583" y2="66.8593" gradientTransform="matrix(-1.1337 0 0 -1 2831.8003 907.8898)">
		<stop  offset="0" style="stop-color:#DDC07C"/>
		<stop  offset="0.135" style="stop-color:#D8BB78"/>
		<stop  offset="0.3047" style="stop-color:#C8AB6B"/>
		<stop  offset="0.4931" style="stop-color:#AE9256"/>
		<stop  offset="0.6949" style="stop-color:#8B6F38"/>
		<stop  offset="0.9052" style="stop-color:#5D4213"/>
		<stop  offset="1" style="stop-color:#462B00"/>
	</linearGradient>
	<path class="st30" d="M995.2,720.9c0,0-20.7,11.9-22.2,24.4s-3.3,62.2-6.4,66.7c-3.1,4.5-6.4,3.8-7.7,9.5s-5.6,32.7-7.2,35
		s-4.6,19.4-4.1,25.7s15.9,3.9,15.9,3.9s-3.6-19.3,1.8-32.6c5.4-13.3,14.8-26.9,18.9-34.1c4.1-7.2,3.2-14,10.9-19.9
		c7.8-5.9,24.7-11.3,25.4-11.3c0.8,0,13.1-8.6,13.1-8.6l-14.6-28L995.2,720.9z"/>
	<path class="st24" d="M1177.1,826.5c-7.2,3.5-10.4,7-10.5,12c-0.1,4.9-4.1,26.6-2.1,31.3s13.5-4.5,15.3-13.2
		C1181.6,847.7,1177.1,826.5,1177.1,826.5z"/>
</g>
<g>
	<path class="st20" d="M554.6,552.2c0,0-5.2,2.1-5.9,5.7c-0.7,3.6,1,20.9,3,23.6c1.9,2.7,7.4,10.4,7.4,10.4h-11.4
		c0,0-5.5-14-6.9-19.8s-3.5-14.3-3.6-15.9s9.8-12,9.8-12L554.6,552.2z"/>
	<path class="st21" d="M625.9,561.1v33.2c0,0-8.1-0.5-9.8-0.6s2.4-10.2,3-14.2s0.4-23.3,0.4-23.3L625.9,561.1z"/>
	<path class="st22" d="M538.7,493c11.3-4.6,41.2-0.4,50,1.9c8.8,2.2,19.8,2.7,22,5.4c2.2,2.7,19.5,18.9,22,23.3s11.8,18.7,13.7,21.1
		c1.9,2.4,3,4.1,4.9,5.3s8.2,6.3,9.9,9.2s4.7,15.5,3.8,17.2s-6.3-9-6.3-9s2.5,21.8,0.3,22.5s-10.2,0.7-11.3-2.7s-0.5-4.8-2.2-6.1
		c-1.6-1.2-7.1-6.5-8.8-8.5c0,0-2.7,7.3-5.8,8c-3,0.7-1.6-12.1-1.6-17.2c0,0-30.2-6.8-35.7-9.5s-34.1-0.5-37.7-1.9
		c-3.6-1.5-17.3-11.5-17.3-11.5s-18.4-24.6-18.1-29.5S538.7,493,538.7,493z"/>
	<path class="st23" d="M650.3,551.5c4.6-0.7,9.6,4.4,11,7.7s4.7,14.2,3.8,17.2s-14.2-19.2-13.7-20.3
		C651.8,555,650.3,551.5,650.3,551.5z"/>
	<path class="st24" d="M643.4,552.2c8-1.2,9.1-0.6,10.9,1c1.9,1.6,5,5.1,4.8,10.2s3.6,25.5,0,27.6c-3.6,2.2-9.1,0.2-11.3-2.7
		s0.3-3.9-2.2-6.1s-7.1-5.6-8.8-8.5c-1.6-2.9-5.5-5.3-4.7-11.6S643.4,552.2,643.4,552.2z"/>
	
		<linearGradient id="SVGID_25_" gradientUnits="userSpaceOnUse" x1="1973.7249" y1="376.5771" x2="1974.1669" y2="335.0341" gradientTransform="matrix(-1.1337 0 0 -1 2831.8003 907.8898)">
		<stop  offset="0" style="stop-color:#DDC07C"/>
		<stop  offset="0.135" style="stop-color:#D8BB78"/>
		<stop  offset="0.3047" style="stop-color:#C8AB6B"/>
		<stop  offset="0.4931" style="stop-color:#AE9256"/>
		<stop  offset="0.6949" style="stop-color:#8B6F38"/>
		<stop  offset="0.9052" style="stop-color:#5D4213"/>
		<stop  offset="1" style="stop-color:#462B00"/>
	</linearGradient>
	<path class="st31" d="M603.8,537.2c-4.3,3.8-7.5,21.1-6.3,24.4s1,12.8,0.9,14.6s0,11.7,1,13.1c1,1.4,3.3,5.1,3.3,5.1
		s-8.4,0.4-9.8,0s-2.8-2.5-2.3-3.9c0.6-1.4,0.9-3.5,0.9-5.5s-0.3-11.8-1-14.1c-0.7-2.4-4.3-11.7-4.6-14.7s-0.1-6.7,0.6-10.2
		s-2-14.2-2-14.2L603.8,537.2z"/>
	
		<linearGradient id="SVGID_26_" gradientUnits="userSpaceOnUse" x1="2021.3185" y1="393.2295" x2="2042.3109" y2="342.8475" gradientTransform="matrix(-1.1337 0 0 -1 2831.8003 907.8898)">
		<stop  offset="0" style="stop-color:#DDC07C"/>
		<stop  offset="0.135" style="stop-color:#D8BB78"/>
		<stop  offset="0.3047" style="stop-color:#C8AB6B"/>
		<stop  offset="0.4931" style="stop-color:#AE9256"/>
		<stop  offset="0.6949" style="stop-color:#8B6F38"/>
		<stop  offset="0.9052" style="stop-color:#5D4213"/>
		<stop  offset="1" style="stop-color:#462B00"/>
	</linearGradient>
	<path class="st32" d="M533,497.5c0,0-11.6,6.7-12.5,13.7c-0.8,7-1.9,35-3.6,37.5c-1.7,2.5-3.6,2.2-4.3,5.3
		c-0.7,3.2-3.2,18.4-4,19.7s-2.6,10.9-2.3,14.5c0.3,3.6,8.9,2.2,8.9,2.2s-2-10.8,1-18.3s8.3-15.1,10.6-19.2s1.8-7.9,6.1-11.2
		s13.9-6.3,14.3-6.3s7.3-4.8,7.3-4.8l-8.2-15.7L533,497.5z"/>
	<path class="st24" d="M635.3,556.8c-4.1,2-5.8,4-5.9,6.7c-0.1,2.8-2.3,14.9-1.2,17.6s7.6-2.5,8.6-7.4
		C637.8,568.8,635.3,556.8,635.3,556.8z"/>
</g>
</svg>
