<?xml version="1.0" encoding="utf-8"?>
<!-- Generator: Adobe Illustrator 25.3.0, SVG Export Plug-In . SVG Version: 6.00 Build 0)  -->
<svg version="1.1" xmlns="http://www.w3.org/2000/svg" xmlns:xlink="http://www.w3.org/1999/xlink" x="0px" y="0px"
	 viewBox="0 0 327.02 545.72" style="enable-background:new 0 0 327.02 545.72;" xml:space="preserve">
<style type="text/css">
	.st0{display:none;}
	.st1{display:inline;fill:#E04668;stroke:#231815;stroke-miterlimit:10;}
	.st2{display:inline;}
	.st3{fill:#CBC9C8;}
	.st4{fill:#F4F3F3;}
	.st5{fill:#DCDBDA;}
	.st6{fill:#DBD9D8;}
	.st7{fill:#E1DFDF;}
	.st8{display:inline;fill:#F2F1F1;}
	.st9{display:inline;fill:#E1DFDF;}
	.st10{display:inline;fill:#FFFFFF;}
	.st11{fill:#F5F4F4;}
	.st12{fill:#F9F9F9;}
	.st13{fill:#EBEAEA;}
	.st14{fill:#D5D3D2;}
	.st15{fill:#CECCCC;}
</style>
<g id="图层_2" class="st0">
	<rect x="-53.43" y="-45.24" class="st1" width="424.01" height="576"/>
</g>
<g id="图层_1">
	<g class="st0">
		<g class="st2">
			<path class="st3" d="M-149.39-5.7c100.04,0,118.06,0,257.26,0s158.27,201.98,0,201.98s-350.32,0-350.32,0V-5.7H-149.39z"/>
			<path class="st4" d="M-277.83,138.4c100.04,0,118.06,0,257.26,0s158.27,201.98,0,201.98s-350.32,0-350.32,0V138.4H-277.83z"/>
			<path class="st5" d="M-188.33,326.84c100.04,0,118.06,0,257.26,0s158.27,201.98,0,201.98s-350.32,0-350.32,0V326.84H-188.33z"/>
			<path class="st5" d="M-137.93,470.84c100.04,0,118.06,0,257.26,0s158.27,201.98,0,201.98s-350.32,0-350.32,0V470.84H-137.93z"/>
			<path class="st6" d="M-98.71,100.36c-46.39,0-55.51,0-88.65,0s-48.05,58.02,0,58.02s82.02,0,114.33,0s19.88,24.05,0,24.05
				s-39.11,0-67.19,0s-29.08,33.97,0,33.97s79.62,0,160.81,0s91.13-94.87,0-94.87c-26.51,0-23.2-21.17,0-21.17s37.39,0,64.67,0
				s29.05-31.57,0-31.57s-96.16,0-122.67,0S-68.88,100.36-98.71,100.36z"/>
			<path class="st7" d="M-28.55,467.61c-46.39,0-55.51,0-88.65,0s-48.05,58.02,0,58.02s82.02,0,114.33,0s19.88,24.05,0,24.05
				s-39.11,0-67.19,0s-29.08,33.97,0,33.97s79.62,0,160.81,0s91.13-94.87,0-94.87c-26.51,0-23.2-21.17,0-21.17s37.39,0,64.67,0
				s29.05-31.57,0-31.57s-96.16,0-122.67,0S1.28,467.61-28.55,467.61z"/>
			<path class="st3" d="M24.01,253.69c-21.15,0-76.47,0-122.39,0s-48.01,45.15,0,45.15s26.09,0,73.06,0s43.84,41.92,0,41.92
				s-192.5,0-256.99,0s-68.07,75.25,0,75.25s71.63,0,128.3,0s57.1,41.92,0,41.92s-54.58,47.3,0,47.3s132.87,0,192.36,0
				s53.23-53.75,0-53.75s-56.58,0-78.39,0s-20.98-26.87,0-26.87s74.22,0,125.36,0s48.01-45.15,0-45.15s-44.88,0-68.89,0
				s-31.82-25.8,7.58-25.8s129.16,0,168.82,0s61.58-52.67,0-52.67s-51.14,0-78.28,0s-28.18-20.97,0-20.97s81.41,0,101.25,0
				s20.88-26.33-3.13-26.33S24.01,253.69,24.01,253.69z"/>
		</g>
		<path class="st8" d="M-28.7,113.62c0,0,76.13,0,99.82,0s18.15,23.36,4.54,23.36s-21.68,0-36.8,0s-16.13,21.81,0,21.81
			s97.81,0,120.49,0s23.19,25.44,0,25.44s-109.91,0-131.08,0s-56.97,0-56.97,0V113.62z"/>
		<path class="st9" d="M-117.93,219.5c17.65,0,126.61,0,141.45,0s17.43,22.33,0,22.33s-40.62,0-51.2,0s-11.6,20.77,0,20.77
			s161.83,0,191.08,0s26.22,25.96,3.53,25.96s-92.77,0-108.9,0s-15.12,20.77,0,20.77s171.41,0,191.08,0s24.7,22.85,0,22.85
			s-363.5,0-363.5,0L-117.93,219.5z"/>
		<path class="st10" d="M-23.16,4.95c44.87,0,167.88,0,182.51,0c14.62,0,14.62,21.29,0,21.29c-14.62,0-49.41,0-66.55,0
			s-18.65,22.33-2.02,22.33s111.42,0,124.53,0s17.14,17.13,0,17.13s-115.45,0-130.58,0s-43.86,0-58.48,0s-16.13-21.29,0.5-21.29
			s13.11,0,26.22,0s17.14-20.77,0-20.77s-57.98,0-76.13,0S-39.8,4.95-23.16,4.95z"/>
	</g>
	<g>
		<path class="st5" d="M634.34,548.94c-92.62,0-109.31,0-238.2,0s-146.55-181.59,0-181.59s324.37,0,324.37,0v181.59H634.34z"/>
		<path class="st5" d="M495.62,227.03c-92.62,0-109.31,0-238.2,0s-146.55-181.59,0-181.59s324.37,0,324.37,0v181.59H495.62z"/>
		<path class="st11" d="M551.86,392.68c-92.62,0-109.31,0-238.2,0s-146.55-181.59,0-181.59s324.37,0,324.37,0v181.59H551.86z"/>
		<path class="st12" d="M481.41,110.18c-19.58,0-70.8,0-113.32,0s-44.46,40.59,0,40.59s24.16,0,67.65,0s40.59,37.69,0,37.69
			s-178.24,0-237.95,0s-63.03,67.65,0,67.65s66.32,0,118.79,0s52.87,37.69,0,37.69s-50.54,42.52,0,42.52s123.02,0,178.11,0
			s49.29-48.32,0-48.32s-52.39,0-72.58,0c-20.19,0-19.43-24.16,0-24.16c19.43,0,68.72,0,116.07,0s44.46-40.59,0-40.59
			c-44.46,0-41.56,0-63.79,0s-29.46-23.19,7.02-23.19s119.59,0,156.31,0s57.02-47.36,0-47.36s-47.36,0-72.48,0
			c-25.13,0-26.09-18.85,0-18.85c26.09,0,75.38,0,93.74,0s19.33-23.67-2.9-23.67S481.41,110.18,481.41,110.18z"/>
		<path class="st13" d="M343.76,494.43c-13.17,0-94.47,0-105.55,0c-11.07,0-13-23.3,0-23.3c13,0,30.31,0,38.21,0
			c7.9,0,8.65-21.68,0-21.68c-8.65,0-120.76,0-142.58,0s-19.56-27.1-2.63-27.1s69.22,0,81.26,0c12.04,0,11.29-21.68,0-21.68
			c-11.29,0-127.91,0-142.58,0s-18.43-23.85,0-23.85s271.24,0,271.24,0L343.76,494.43z"/>
		<path class="st14" d="M410.8,458.14c-13.17,0-94.47,0-105.55,0s-13,22.41,0,22.41s30.31,0,38.21,0s8.65,20.84,0,20.84
			c-8.65,0-120.76,0-142.58,0s-19.56,26.05-2.63,26.05s69.22,0,81.26,0s11.29,20.84,0,20.84c-11.29,0-127.91,0-142.58,0
			s-18.43,22.93,0,22.93s271.24,0,271.24,0L410.8,458.14z"/>
		<path class="st13" d="M136.56,311.68c41.55,0,155.45,0,168.98,0c13.54,0,13.54,19.14,0,19.14c-13.54,0-45.75,0-61.62,0
			s-17.27,20.07-1.87,20.07s103.16,0,115.3,0c12.14,0,15.87,15.4,0,15.4s-106.9,0-120.9,0s-40.61,0-54.15,0s-14.94-19.14,0.47-19.14
			s12.14,0,24.27,0c12.14,0,15.87-18.67,0-18.67s-53.68,0-70.49,0S121.15,311.68,136.56,311.68z"/>
		<path class="st15" d="M310.8-5.8c-54.12,0-64.75,0-103.41,0c-56.19,0-47.78,65.72,0,65.72c56.05,0,95.68,0,133.37,0
			s23.19,27.25,0,27.25s-45.62,0-78.38,0s-33.93,38.47,0,38.47s92.88,0,187.59,0s106.31-107.46,0-107.46
			c-30.93,0-27.06-23.98,0-23.98c27.06,0,43.62,0,75.45,0c31.83,0,33.89-35.76,0-35.76s-112.17,0-143.1,0S345.59-5.8,310.8-5.8z"/>
	</g>
</g>
</svg>
